<svg version="1.2" xmlns="http://www.w3.org/2000/svg" viewBox="0 0 1000 1000" width="1000" height="1000">
	<title>3231296-ai</title>
	<style>
		.s0 { fill: #f5f5f5 } 
		.s1 { fill: #e0e0e0 } 
		.s2 { fill: #27debf } 
		.s3 { fill: #000000 } 
		.s4 { fill: #ffffff } 
		.s5 { opacity: .1;fill: #000000 } 
		.s6 { fill: #f28f8f } 
		.s7 { fill: #455a64 } 
		.s8 { fill: #263238 } 
		.s9 { opacity: .8;fill: #ffffff } 
		.s10 { opacity: .3;fill: #000000 } 
		.s11 { opacity: .4;fill: #000000 } 
		.s12 { fill: #b16668 } 
		.s13 { fill: #ffa8a7 } 
		.s14 { fill: #37474f } 
		.s15 { opacity: .5;fill: #f28f8f } 
		.s16 { opacity: .5;fill: #000000 } 
		.s17 { fill: #f0f0f0 } 
		.s18 { fill: #ffbda7 } 
		.s19 { fill: #9a4a4d } 
		.s20 { fill: #f0997a } 
		.s21 { fill: #fafafa } 
		.s22 { opacity: .2;fill: #000000 } 
		.s23 { fill: #ebebeb } 
	</style>
	<g id="Floor">
		<path id="Floor 4 " class="s0" d="m835.6 482.2c185.9 107.3 185.9 281.3 0 388.6-185.8 107.3-487.2 107.3-673.1 0-185.9-107.3-185.9-281.3 0-388.6 185.9-107.4 487.3-107.4 673.1 0z"/>
	</g>
	<g id="Shadows">
		<path id="Shadow 7 " class="s1" d="m820.3 501.8c24 13.9 24 36.4 0 50.2-24 13.9-63 13.9-87 0-24-13.8-24-36.3 0-50.2 24-13.8 63-13.8 87 0z"/>
		<path id="Shadow 14 " class="s1" d="m692 480.4c30.8 17.8 30.8 46.5 0 64.3-30.7 17.7-80.6 17.7-111.3 0-30.8-17.8-30.8-46.5 0-64.3 30.7-17.8 80.6-17.8 111.3 0z"/>
		<path id="Shadow 15 " class="s1" d="m549.3 471.7c30.8 17.8 30.8 46.6 0 64.3-30.7 17.8-80.6 17.8-111.3 0-30.8-17.7-30.8-46.5 0-64.3 30.7-17.7 80.6-17.7 111.3 0z"/>
		<path id="Shadow 16 " class="s1" d="m327.8 493.1c25.3 14.7 25.3 38.4 0 53.1-25.4 14.6-66.6 14.6-91.9 0-25.4-14.7-25.4-38.4 0-53.1 25.3-14.6 66.5-14.6 91.9 0z"/>
		<path id="Shadow 18 " class="s1" d="m247.3 759.5c26.8 15.5 26.8 40.6 0 56.1-26.8 15.4-70.3 15.4-97.1 0-26.9-15.5-26.9-40.6 0-56.1 26.8-15.5 70.3-15.5 97.1 0z"/>
		<path id="Shadow 20 " class="s1" d="m360.8 753.1c26.8 15.5 26.8 40.6 0 56-26.8 15.5-70.3 15.5-97.1 0-26.8-15.4-26.8-40.5 0-56 26.8-15.5 70.3-15.5 97.1 0z"/>
		<path id="Shadow 21 " class="s1" d="m484.3 745.3c29.7 17.2 29.7 45 0 62.2-29.8 17.2-78 17.2-107.7 0-29.8-17.2-29.8-45 0-62.2 29.7-17.2 77.9-17.2 107.7 0z"/>
		<path id="Shadow 22 " class="s1" d="m797.2 719.2c56.9 32.9 56.9 86.1 0 119-57 32.8-149.2 32.8-206.1 0-57-32.9-57-86.1 0-119 56.9-32.9 149.1-32.9 206.1 0z"/>
	</g>
	<g id="Plants">
		<g id="Plants 2 ">
			<g id="&lt;Group&gt;">
				<g id="&lt;Group&gt;">
					<path id="&lt;Path&gt;" class="s2" d="m204.6 504.7l16.1-9.3c0 0 9.5-39.7 5.7-75.4-5.4-50.3-38.4-69.2-51-64.9-12.6 4.4-16.2 19 4.6 48.9 12.3 17.7 27.3 54.5 24.6 100.7z"/>
				</g>
				<g id="&lt;Group&gt;" style="opacity: .1">
					<path id="&lt;Path&gt;" class="s3" d="m204.6 504.7l16.1-9.3c0 0 9.5-39.7 5.7-75.4-5.4-50.3-38.4-69.2-51-64.9-12.6 4.4-16.2 19 4.6 48.9 12.3 17.7 27.3 54.5 24.6 100.7z"/>
				</g>
				<g id="&lt;Group&gt;">
					<path id="&lt;Path&gt;" class="s4" d="m211.2 485.2q0 0-0.1 0c-0.6-0.1-1-0.7-0.9-1.3 8.8-46.4-7.4-98.5-27.4-120.1-0.5-0.5-0.4-1.2 0-1.6 0.5-0.4 1.2-0.4 1.6 0.1 20.4 22 36.9 75 28 122-0.1 0.6-0.6 0.9-1.2 0.9z"/>
				</g>
			</g>
			<g id="&lt;Group&gt;">
				<g id="&lt;Group&gt;">
					<path id="&lt;Path&gt;" class="s2" d="m162.5 529c-2.5 1.3-9.3-4.5-11.2-5.9-3.2-2.4-5.7-5.7-7.3-9.3-1.9-4.3-2.2-8.8-1.3-13.4 0.4-2.4 1.2-4.7 2-6.9q1.2-3.4 2.3-6.8c0.8-2.2 1.5-4.5 1.4-6.8-0.4-4.7-4.4-8.2-8-11.2-4-3.4-8.2-7.7-7.9-13.3 0.3-4.4 2.7-8.3 5.6-11.6 2.9-3.3 6.2-6.1 8.8-9.6 1.9-2.5 3.4-5.5 3.3-8.6-0.1-1.9-0.8-3.8-1.6-5.6-1.8-3.7-4.3-7.2-5.5-11.2-1.1-4-0.7-8.9 2.5-11.6 2.7-2.2 6.4-2.3 9.8-1.9 3.2 0.4 6.2 2 8.9 3.6 8.7 5.5 13.2 16.3 22.5 20.6 3.6 1.7 7.6 2.2 11.4 3.4 3.7 1.2 7.5 3.3 9.1 6.9 3.1 7.2-3.8 15.4-1.7 22.9 1.9 6.7 8.1 9.5 11.3 15.5 1.5 2.7 1.7 5.7 1.3 8.7-0.7 5-1.6 8.7-4.4 14.3-2.2 4.5-8.5 13.1-8.5 13.1 0 0-42.4 24.5-42.8 24.7z"/>
				</g>
				<g id="&lt;Group&gt;">
					<path id="&lt;Path&gt;" class="s4" d="m187.1 516.2q0 0 0 0c-0.7 0-1.1-0.6-1.1-1.2 4.1-44.1-14.2-93.9-28.7-108.9-0.4-0.4-0.4-1.1 0.1-1.5 0.4-0.5 1.1-0.4 1.5 0 14.7 15.2 33.5 65.9 29.4 110.6-0.1 0.6-0.6 1-1.2 1z"/>
				</g>
				<g id="&lt;Group&gt;">
					<path id="&lt;Path&gt;" class="s4" d="m182.7 461.8q-0.1 0-0.3 0c-14-5.1-31.6-6.8-31.8-6.8-0.6-0.1-1.1-0.6-1-1.2 0-0.6 0.5-1.1 1.2-1 0.2 0 18.1 1.7 32.4 6.9 0.5 0.2 0.8 0.8 0.6 1.4-0.2 0.5-0.6 0.8-1.1 0.7z"/>
				</g>
			</g>
		</g>
		<g id="Plants 1 ">
			<g id="&lt;Group&gt;">
				<path id="&lt;Path&gt;" class="s2" d="m821.7 527.6l-17.8-10c0 0-1.7-32.6 0.8-58.5 3.6-36.5 27.2-80.4 55.3-70.1 28.1 10.3-12.9 47.5-22 78.4-9.1 31-16.3 60.2-16.3 60.2z"/>
				<path id="&lt;Path&gt;" class="s5" d="m821.7 527.6l-17.8-10c0 0-1.7-32.6 0.8-58.5 3.6-36.5 27.2-80.4 55.3-70.1 28.1 10.3-12.9 47.5-22 78.4-9.1 31-16.3 60.2-16.3 60.2z"/>
				<path id="&lt;Path&gt;" class="s4" d="m813.5 523.8q0 0 0 0c0.5 0 0.9-0.5 0.9-1-2.7-81.1 37.6-121.8 38-122.2 0.4-0.4 0.4-1 0-1.4-0.3-0.4-0.9-0.4-1.3 0-0.4 0.4-41.4 41.8-38.6 123.7 0 0.5 0.4 0.9 1 0.9z"/>
			</g>
			<g id="&lt;Group&gt;">
				<path id="&lt;Path&gt;" class="s2" d="m831.5 533.2l-11.1-6.4c0 0-1.9-23 9.4-50.9 9.8-24.4 34.2-44.6 46.4-40.3 12.3 4.2 12 12.9 6 22-6 9.1-42.3 30.9-50.7 75.6z"/>
				<path id="&lt;Path&gt;" class="s4" d="m825.7 530.8c0.5 0 0.9-0.4 0.9-0.9-0.2-51.3 47.9-86 48.4-86.3 0.4-0.3 0.5-0.9 0.2-1.3-0.3-0.4-0.9-0.6-1.3-0.2-0.5 0.3-49.4 35.5-49.2 87.8 0 0.5 0.4 0.9 1 0.9z"/>
			</g>
		</g>
	</g>
	<g id="Woman">
		<g id="Character 2">
			<path id="&lt;Path&gt;" class="s6" d="m312.1 255.7c-10.7-57.5-12.4-69.5-13.8-81.3 16.2-1.7 24.6 7.8 27.6 24.8 1.4 8.4 2.8 42.1 6.6 55.5 3.4 11.8 8 24.5 15.6 34.5 1.7 2.4 3.3 2.7 5 3.3 4.7 1.6 6 4.2 9.8 6.7 3 1.9 5.1 2.1 5 2.9-0.2 1.1-1.5 3.2-4.6 3-1.6-0.2-2.8-0.6-5.5-1.6 0 0 2.7 4 8.1 8.2 7.2 5.6 6.8 11.3-4.6 14-7.1 1.7-13.9-1.4-22.9-16-2.6-4.2-8-11.7-10.9-17.2-8.9-17.3-13.6-27.1-15.4-36.8z"/>
			<path id="&lt;Path&gt;" class="s7" d="m300.8 173c0 0 11.3-0.6 16.2 5.4 4.9 5.9 8.7 8.4 10.4 25.9 1.7 17.6 3.6 35.7 4.3 42.6 0.6 6.9 14.6 39.8 14.6 39.8 0 0-10.1 2.2-15.3 11.8 0 0-14-22.4-18.7-36.6-4.6-14.1-5.9-22.1-7.3-34-1.5-11.9-4.2-54.9-4.2-54.9z"/>
			<g id="&lt;Group&gt;">
				<path id="&lt;Path&gt;" class="s2" d="m293.6 181.1h-45.1v-52.6c0-18.6 15.1-33.7 33.7-33.7 18.6 0 33.7 15.1 33.7 33.7v30.4c0 12.3-10 22.2-22.3 22.2z"/>
				<path id="&lt;Path&gt;" class="s5" d="m293.6 181.1h-45.1v-52.6c0-18.6 15.1-33.7 33.7-33.7 18.6 0 33.7 15.1 33.7 33.7v30.4c0 12.3-10 22.2-22.3 22.2z"/>
			</g>
			<g id="&lt;Group&gt;">
				<g id="&lt;Group&gt;">
					<path id="&lt;Path&gt;" class="s6" d="m276.3 529.9c-1.5-1.3-3.1-2.6-4.4-3.9-4.3-3.9-7.6-10.5-9.4-15.1-1.1-2.5-1.6-5.3-1.6-8.1v-8.8h-15.5v14.3 0.4l0.1 0.1c0.8 3.2 7.8 11.7 11.9 17.3 2.6 3.7 7.8 8.5 13.9 9.3 5.8 0.8 8.7-1.1 5-5.5z"/>
					<g id="&lt;Group&gt;">
						<path id="&lt;Path&gt;" class="s8" d="m241.5 514.9c-0.8 3.5 0.4 13.3 0.4 13.3 0 0 1.6 3.3 7.2 5.4l2.1-13.6z"/>
						<path id="&lt;Path&gt;" class="s3" d="m249.1 533.6l12-4.2 2.6-10.9-13.4 7.3z"/>
						<path id="&lt;Path&gt;" class="s7" d="m260.9 501.9v-2.5c1.6 0.7 5.6 13.9 10.7 22.9 4.7 8.2 13.6 12.6 16.6 16.1 3.9 4.8-3.4 11.2-15.4 8.9-6-1.1-15.1-4.7-17.7-8.7-2.5-3.9-3.5-11.3-5.6-14.2-2.1-2.9-6.9-6.2-8-9.5-0.6-1.9 0.2-5.9 1.2-9.2 0.8-3.1 1.7-6.9 2.7-6.6v2.4c0.9 1.6 2.5 3.3 8.5 3.5 2.9 0.1 5.7-0.4 7-3.1z"/>
					</g>
				</g>
				<g id="&lt;Group&gt;">
					<path id="&lt;Path&gt;" class="s6" d="m326.4 523.3c-1.5-1.4-3-2.7-4.4-3.9-4.3-4-7.5-10.6-9.4-15.1-1.1-2.6-1.7-6.6-1.7-9.4v-7.4l-15.3-0.2v14.4 0.4c0.8 3.2 7.9 11.8 11.9 17.3 2.7 3.8 7.8 8.5 13.9 9.4 5.8 0.7 8.8-1.1 5-5.5z"/>
					<g id="&lt;Group&gt;">
						<path id="&lt;Path&gt;" class="s8" d="m291.6 507.8c-0.8 3.6 0.4 13.4 0.4 13.4 0 0 1.6 3.3 7.1 5.4l2.2-13.7z"/>
						<path id="&lt;Path&gt;" class="s3" d="m299.1 526.6l12-4.3 2.7-10.8-13.4 7.2z"/>
						<path id="&lt;Path&gt;" class="s7" d="m310.9 494.9v-2.6c1.7 0.8 5.7 14 10.8 22.9 4.6 8.2 13.6 12.7 16.6 16.2 3.9 4.7-3.4 11.2-15.4 8.9-6-1.1-15.1-4.7-17.7-8.7-2.5-4-3.5-11.3-5.6-14.2-2.1-3-6.9-6.2-8-9.6-0.6-1.8 0.2-5.8 1.2-9.2 0.8-3.1 1.7-6.8 2.8-6.5v2.4c0.8 1.6 2.4 3.3 8.4 3.5 2.9 0 5.7-0.5 6.9-3.1z"/>
					</g>
				</g>
				<g id="&lt;Group&gt;">
					<g id="&lt;Group&gt;">
						<path id="&lt;Path&gt;" class="s6" d="m244.7 267c-12.4 27.1 0.4 122.4 0.4 122.4-0.3 4.4-6.2 14.2-5.8 31.8 0.5 22.9 5.2 71.5 6.1 77.9 1 6.5 6.7 6.8 15.5 0.8 0 0 11.8-83.7 14.6-106.4 2.5-19.8 6.4-55.1 6.4-55.1l6.1 56.7c0 0-4.2 14.7-4.3 23.2-0.2 17.5 10.8 64.7 11.9 73.8 2.1 4.3 5.3 3.7 15.3-1.6 0 0 5-82.4 6.2-98.5 2-27-2-120-6.9-136z"/>
					</g>
					<g id="&lt;Group&gt;" style="opacity: .1">
						<path id="&lt;Path&gt;" class="s3" d="m281.9 338.4l4.9-33.4c0 0 17-3.5 24.7-10.8 0 0-8.1 10.1-20.1 13.4l-4.5 19.3 0.1 58.3z"/>
					</g>
				</g>
			</g>
			<path id="&lt;Path&gt;" class="s2" d="m267.8 175l-11 0.5-10.9 12.4c-0.8 7-3.4 16-1.1 22.7l7.2 31.7c0 0-0.3 3.7-2.1 9.1-0.3 1.1-8.6 18-11.9 36.9-11.4 65-9.3 134.4-9.3 197.1 27.7 15.5 85.3 4.4 93.6-6.9 0.1-0.9-1.5-151.6-10-228.3-2.1-3.6-0.8-8.6-0.8-8.6l3.1-15.1c6.9-10.7 7.5-21.2 3.9-28.7-6-12.3-14.5-20.9-18.9-22.3-2.5-0.7-8.9-1.5-11.3-1.3z"/>
			<path id="&lt;Path&gt;" class="s9" d="m267.8 175l-11 0.5-10.9 12.4c-0.8 7-3.4 16-1.1 22.7l7.2 31.7c0 0-0.3 3.7-2.1 9.1-0.3 1.1-8.6 18-11.9 36.9-11.4 65-9.3 134.4-9.3 197.1 27.7 15.5 85.3 4.4 93.6-6.9 0.1-0.9-1.5-151.6-10-228.3-2.1-3.6-0.8-8.6-0.8-8.6l3.1-15.1c6.9-10.7 7.5-21.2 3.9-28.7-6-12.3-14.5-20.9-18.9-22.3-2.5-0.7-8.9-1.5-11.3-1.3z"/>
			<path id="&lt;Path&gt;" class="s6" d="m249.8 174.2c-13.5 0.5-16.2 9.6-24.8 21.7-6.1 8.5-16.2 21.9-16.2 21.9 0 0-17.6-25.7-18.6-29.5-1.2-4.6 0.3-6.7 0-11.8-0.4-5.1-1.4-8.4-0.6-10.7 0.7-2.3-3.5-1.9-4.6 1.1-1.1 2.9-0.5 6.6-1.7 6.2-1.3-0.4-3.9-8-4.2-13.8-0.3-5.8-3.7-6.5-4.5-4.5-0.7 2-0.9 3.4-0.9 3.4 0 0-4.8-0.6-6.9 3.3-2.2 3.8-3.7 9.2-1.8 17.5 1.9 8.2 7.5 13.5 9.4 16.9 2.9 5 13.4 34 24.7 47.8 5.2 6.3 11.5 4.3 16.2-0.7 7.2-7.7 29.9-31.6 29.9-31.6 9.3-8.7 12.8-31.1 4.6-37.2z"/>
			<path id="&lt;Path&gt;" class="s7" d="m253.7 173c0 0-10.9-1.4-17.1 5.4-6.2 6.7-27.8 39.4-27.8 39.4l-18.6-29.5c0 0-2.4 7.6-15 9.2 0 0 6 15.2 10.7 26.6 4.7 11.3 12.1 24.9 19.6 24.9 7.5 0 9.9-3.8 24-18.4 14.2-14.7 22-23.5 22-23.5 0 0 9.3-17.4 2.2-34.1z"/>
			<g id="&lt;Group&gt;">
				<path id="&lt;Path&gt;" class="s2" d="m260.6 213.6v-43.7h20v23.6c0 11.1-8.9 20.1-20 20.1z"/>
				<path id="&lt;Path&gt;" class="s10" d="m260.6 213.6v-43.7h20v23.6c0 11.1-8.9 20.1-20 20.1z"/>
			</g>
			<g id="&lt;Group&gt;">
				<g id="&lt;Group&gt;">
					<path id="&lt;Path&gt;" class="s6" d="m304.8 112c4.6 3.3 6.1 7 5.6 27.7-0.4 17.5-6.1 21.9-8.9 23.1-2.9 1.3-8.4 0.5-13.7-0.4v12.5c0 0 2.3 1.4 3.5 6.1 0.4 1.3-3.9 3.4-14.6 1.9-8.2-1.1-10.9-7.1-10.9-7.1v-25.5-13.8c0 0 0.1-15.9 11.4-22.2 11.4-6.2 22.1-4.7 27.6-2.3z"/>
				</g>
				<path id="&lt;Path&gt;" class="s2" d="m265.8 136.5c0 0 10.4-18.6 25.5-20.9 15.2-2.2 18.5 5.4 18.5 5.4 0 0-1.9-17.2-18.5-16.8-22.8 0.7-25.5 18.2-25.5 32.3z"/>
				<path id="&lt;Path&gt;" class="s11" d="m265.8 136.5c0 0 10.4-18.6 25.5-20.9 15.2-2.2 18.5 5.4 18.5 5.4 0 0-1.9-17.2-18.5-16.8-22.8 0.7-25.5 18.2-25.5 32.3z"/>
				<g id="&lt;Group&gt;">
					<path id="&lt;Path&gt;" class="s8" d="m287.9 135.3c0.1 1.2-0.9 2.3-2.1 2.4-1.2 0-2.2-0.9-2.3-2.2 0-1.3 0.9-2.4 2.1-2.4 1.2-0.1 2.3 0.9 2.3 2.2z"/>
					<path id="&lt;Path&gt;" class="s12" d="m288.8 150.2l5.1 1.6c-0.4 1.5-1.9 2.3-3.3 1.9-1.4-0.5-2.2-2-1.8-3.5z"/>
					<path id="&lt;Path&gt;" class="s8" d="m307 128.8l-4.5-3.1c0.8-1.3 2.5-1.6 3.7-0.8 1.3 0.9 1.6 2.6 0.8 3.9z"/>
					<path id="&lt;Path&gt;" class="s8" d="m281.5 128.5l4.5-3.1c-0.9-1.3-2.5-1.6-3.7-0.8-1.3 0.9-1.6 2.6-0.8 3.9z"/>
					<path id="&lt;Path&gt;" class="s8" d="m305.2 134.8c0.1 1.3-0.8 2.4-2 2.4-1.3 0.1-2.3-0.9-2.4-2.2 0-1.2 0.9-2.3 2.1-2.4 1.2 0 2.3 1 2.3 2.2z"/>
					<path id="&lt;Path&gt;" class="s12" d="m294.7 133.4l0.3 13.3 7-2.2z"/>
					<g id="&lt;Group&gt;">
						<path id="&lt;Path&gt;" class="s12" d="m287.8 162.4c-5.7-0.7-17.2-4-19-8.6 0 0 0.6 2.8 4 5.8 3.5 3 15 6.3 15 6.3z"/>
					</g>
				</g>
			</g>
			<g id="&lt;Group&gt;">
				<path id="&lt;Path&gt;" class="s2" d="m294.9 164.8l-7.1-2.4c0 1.3-1 2.4-2.3 2.4h-11.2c-4.7 0-8.5-3.9-8.5-8.6l-7.1 8.6h-10.2v13.5c0 4.6 3.7 8.3 8.3 8.3h30.8c11.2 0 20.3-9.1 20.3-20.3v-1.5z"/>
				<path id="&lt;Path&gt;" class="s5" d="m294.9 164.8l-7.1-2.4c0 1.3-1 2.4-2.3 2.4h-11.2c-4.7 0-8.5-3.9-8.5-8.6l-7.1 8.6h-10.2v13.5c0 4.6 3.7 8.3 8.3 8.3h30.8c11.2 0 20.3-9.1 20.3-20.3v-1.5z"/>
			</g>
			<path id="&lt;Path&gt;" class="s2" d="m311.5 241.6c0 0-4.2 3.7-25 4.7-20.8 0.9-34.5-4-34.5-4l-2.1 9.1c0 0 13.9 5.3 36.3 4.5 22.3-0.7 26.1-5.7 26.1-5.7z"/>
		</g>
	</g>
	<g id="Family 2">
		<g id="Family 2">
			<g id="&lt;Group&gt;">
				<path id="&lt;Path&gt;" class="s6" d="m592.6 231.7c-3.6 9.7-15.8 39-17.8 43.3-1.5 3.1-4.1 9.6-5 13-1.4 5.2-10.8 19.2-6.3 21.9 8.2 4.8 15.1-4.4 17.7-8 3.6-4.9 7.4-11.6 10.4-16.9 5.8-10.5 11.2-19.6 15.7-29.4 3.5-7.6 13.1-42.4 15.9-51 3.8-11.8 7-44.9 7-44.9-11.8 0-18.3 2.4-21.4 8.2-6 11.2-8.6 26.1-11.2 39.5-2.4 12.2-5 24.3-5 24.3z"/>
				<path id="&lt;Path&gt;" class="s13" d="m522.3 200.2c0 0 4.3 24.2 13.6 44.6 5.8 12.8 14.4 28.4 17.2 35.6 0.7 1.7 0.2 3.6-0.3 5.7-1 4.2-0.2 6.2-1.4 10.5-1 3.3-1.5 4.4-0.9 4.9 0.9 0.7 3.2 1.4 5.4-0.8 1.1-1.1 2.2-3 3.6-5.5 0 0 0.9 5.2-0.4 11.8-1.7 8.9 4.5 9.8 10.3 7.5 6.8-2.7 8.8-9.4 6.1-26.1-0.8-4.8-3.6-13.3-5.9-19-7.1-17.1-12.4-27.9-17.5-40.4-4.3-17.9-8.6-38.1-13.6-49.7-2.7-6.2-11.3-10.6-21.3-9.8 1.2 11.1 5.1 30.7 5.1 30.7z"/>
				<path id="&lt;Path&gt;" class="s6" d="m557.6 295.8c2.4-1.9 8.3-5.8 10.3-3.2 1.9 2.7 2.3 10.7 0.5 14.2-1.8 3.4-8 3.3-8.5 6.9-5.5-1.6-7.5-14-2.3-17.9z"/>
				<g id="Arms 2 ">
					<g id="&lt;Group&gt;">
						<g id="&lt;Group&gt;">
							<path id="&lt;Path&gt;" class="s2" d="m630.2 157.6c0 0-13.6-0.6-20 6.4-8.7 9.5-11.5 33.4-15.2 51.7 7.8 8.8 20.9 8.9 26.3 3.1z"/>
						</g>
					</g>
					<g id="&lt;Group&gt;" style="opacity: .1">
						<g id="&lt;Group&gt;">
							<path id="&lt;Path&gt;" class="s3" d="m630.2 157.6c0 0-13.6-0.6-20 6.4-8.7 9.5-11.5 33.4-15.2 51.7 7.8 8.8 20.9 8.9 26.3 3.1z"/>
						</g>
					</g>
				</g>
			</g>
			<g id="Men">
				<g id="&lt;Group&gt;">
					<g id="&lt;Group&gt;">
						<g id="&lt;Group&gt;">
							<path id="&lt;Path&gt;" class="s13" d="m687.4 509.8h-16.5v-28.3h16.5z"/>
							<path id="&lt;Path&gt;" class="s13" d="m625.2 481.4l-16.5 0.6-0.8-29.9 17.3-0.6z"/>
							<path id="&lt;Path&gt;" class="s7" d="m683.3 270.5c1.2 36.5 1.3 111.1 1.3 111.1 0.4 4.6 4.8 12.6 5.1 29 0.5 23.7-1.6 85.1-1.6 85.1 0 0-8 4.6-18.3 0.3 0 0-14.6-84.5-17.6-108-2.6-20.4-6.9-76.1-6.9-76.1l-9 66.9c0 0 1.6 17.4 0.6 31.4-0.7 10.9-10.6 62-10.6 62 0 0-7.8 5.2-19.1 1.4 0 0-1.8-84.9-2-94.8-0.2-11.4 1.1-127.8 1.1-127.8z"/>
							<path id="&lt;Path&gt;" class="s8" d="m670.9 501.6v-2.3c-1.6 0.7-5.2 14.7-11.8 20.7-5.2 4.7-12.3 10.2-14.1 15.5-1.9 5.5 9.9 8.5 14.8 7.7 5.6-1 15.4-5 17.9-8.7 2.4-3.7 3.6-9.1 5.6-11.8 2-2.7 6.6-5.8 7.7-8.9 0.6-1.7-0.1-5.5-1-8.7-0.7-2.9-1.6-6.1-2.6-5.8 0 0.3 0 1.8 0 1.8-1.2 1.3-4.5 2.6-8.2 2.8-2.4 0.1-8.3-0.4-8.3-2.3z"/>
							<path id="&lt;Path&gt;" class="s8" d="m608.5 476.9c-0.8 0-1.5 1.2-3.4 3.3-2.3 2.5-6 5.1-9.7 7-6.2 3.1-18.2 7.8-23.7 10.3-3.4 1.5-3.2 5.6 0.3 8 3.5 2.3 12 4 22.2 1.7 5.5-1.2 12.8-6.4 17.3-6.1 4.6 0.3 13.2 0.2 16.5-2.1 3.4-2.3 2.1-7.3 1.1-11.6-1-4.6-2.3-11.9-3.9-11.6v1.6c-2 3-12.2 4.3-16.6 2.1z"/>
							<path id="&lt;Path&gt;" class="s14" d="m645.3 311.9c0 0-13.2-3.7-23-13.1 0 0 4.4 8.3 17.6 16l-2.8 58.3z"/>
						</g>
					</g>
				</g>
				<path id="&lt;Path&gt;" class="s2" d="m654.9 157.2c7.4 0.7 17 1.8 23.4 3.6 5.1 2.1 7.6 5.7 7.8 11.9 0.5 21-5 65-5 65l3 36.4c-10.1 10.2-54.2 14.1-78.7-2.1 0 0 2.6-71.8 5-83.7 4.3-21.3 12.8-30.4 20.6-30.7z"/>
				<g id="&lt;Group&gt;">
					<g id="&lt;Group&gt;">
						<path id="&lt;Path&gt;" class="s8" d="m655.2 107c0.1 11.9-9.4 21.5-21.2 21.6-11.8 0.1-21.5-9.4-21.6-21.2-0.1-11.8 9.4-21.5 21.2-21.6 11.9-0.1 21.5 9.4 21.6 21.2z"/>
						<path id="&lt;Path&gt;" class="s8" d="m670.9 122.1c0 0-3.3 16.3-4.6 19-1.4 2.7-4.3 3.5-4.3 3.5l0.2-11.5z"/>
						<path id="&lt;Path&gt;" class="s8" d="m666.4 98.8c0 0 3.7-0.6 6.6 2.3 2.9 2.9 1.4 12-2.1 21l-6.5 0.8z"/>
						<path id="&lt;Path&gt;" class="s6" d="m662.5 122.9c1.3 0.8 3.1-1.7 4.7-3.4 1.6-1.7 6.9-4.1 9.5 1.4 2.8 5.7-2.2 13.2-6.3 14.5-7.1 2.3-8.2-2.3-8.2-2.3l-0.3 26.6c-8.8 11.5-33.5 10.7-23.3-1.2l-0.1-7.9c0 0-6.4 1-9.6 0.6-5.3-0.8-8.6-4.9-10.3-10.6-2.6-9.1-3.6-16.5-1.6-34.5 2.2-19.7 25.1-20.1 37.5-12.4 12.5 7.7 8 29.2 8 29.2z"/>
						<path id="&lt;Path&gt;" class="s8" d="m662.5 125.1c0.6 0.1 3.1-4.1 4.7-5.6 2.3-2.1-0.8-20.7-0.8-20.7 0 0 2.7-5.3-1.7-10-3.1-3.4-7.4-7.5-21.5-5.7-9.9 1.2-20.8 4.5-29.6 0.2-1.3 5.5-0.2 11.6 5.3 15.9 0 0 3.2 2 11.6 3 8.4 0.9 21.4-0.4 23.2-0.7 2.4-0.3 3 2 4.3 8.4 1.2 5.7 2.3 15.2 4.5 15.2z"/>
						<path id="&lt;Path&gt;" class="s8" d="m666.4 100.3l7.9-4.3c-1.2-2.3-3.9-3.2-6-2-2.2 1.2-3.1 4-1.9 6.3z"/>
						<path id="&lt;Path&gt;" class="s12" d="m638.5 150.6c0 0 11.7-2.5 15.8-4.7 2.8-1.5 5-4 5.6-5.6 0 0-0.7 3.4-3.1 6.6-3 3.9-18.3 6.8-18.3 6.8z"/>
					</g>
					<g id="&lt;Group&gt;">
						<path id="&lt;Path&gt;" class="s8" d="m641.1 120.2c0 1.3 1.1 2.4 2.3 2.4 1.3 0 2.4-1.1 2.4-2.5 0-1.3-1.1-2.4-2.4-2.4-1.3 0-2.3 1.1-2.3 2.5z"/>
						<path id="&lt;Path&gt;" class="s8" d="m643.5 111.3l5.1 2.7c0.7-1.4 0.1-3.2-1.3-4-1.4-0.7-3.1-0.2-3.8 1.3z"/>
						<path id="&lt;Path&gt;" class="s12" d="m639.5 136.5l-5.4 2c0.6 1.6 2.2 2.3 3.7 1.8 1.4-0.6 2.2-2.3 1.7-3.8z"/>
						<path id="&lt;Path&gt;" class="s8" d="m620 113.5l4.6-3.6c-1-1.3-2.7-1.6-4-0.6-1.3 1-1.5 2.9-0.6 4.2z"/>
						<path id="&lt;Path&gt;" class="s8" d="m621.5 119.7c0 1.3 1.1 2.4 2.4 2.4 1.3 0 2.3-1.1 2.3-2.5 0-1.3-1.1-2.4-2.4-2.4-1.3 0-2.3 1.1-2.3 2.5z"/>
						<path id="&lt;Path&gt;" class="s12" d="m633.5 117.4l-0.7 14.1-7.4-2.4z"/>
					</g>
				</g>
				<g id="&lt;Group&gt;">
					<g id="&lt;Group&gt;">
						<g id="&lt;Group&gt;">
							<path id="&lt;Path&gt;" class="s13" d="m744.3 310.3l-20.1 21.8-29.7-20.7-6.7 14.2c0 0 13.5 12.3 24.8 19.5 3.9 2.5 11.9 9.2 18.2 4.5 6.9-5.2 20.9-18 20.9-18l13.4-30.8c-9.2-1.2-13.5 2.4-20.8 9.5z"/>
							<path id="&lt;Path&gt;" class="s15" d="m694.5 311.4l-2.2 4.7-4.5 9.5c0 0 0.5 0.5 1.3 1.2q0.1 0.1 0.2 0.2 0.4 0.3 0.8 0.7 0.4 0.4 1 0.9 0.1 0 0.1 0.1c0.8 0.6 1.7 1.4 2.7 2.2q0.1 0.2 0.3 0.3 0.7 0.6 1.4 1.2 0.1 0.1 0.3 0.2c9.7-1.2 11.8-9.6 12.2-11.8z"/>
						</g>
						<path id="&lt;Path&gt;" class="s6" d="m712.9 287c-0.6 6.6-1.4 15.4-2.7 20.4-4.5 17.3-10.3 22.5-18 23.1-12.2 0.8-12.3-3.8-6.8-11.7 4.1-5.9 5.5-11.3 5.5-11.3-2.4 1.8-4.4 3.2-5.9 3.8-3.1 1.2-5-0.5-5.5-1.5-0.5-0.8 1.7-1.7 4-4.5 3-3.7 4.2-6.3 8.3-9.4 1.6-1.1 2.1-3.6 2.1-5.6 0-3.3-2.7-40.3-2.7-49.4l-11-37.2c-4.8-23.7-1.6-39.6 1.4-41.7 17.3 4.5 17.9 16.8 31.2 66.3 2.4 8.8 1.5 45.3 0.1 58.7z"/>
						<path id="&lt;Path&gt;" class="s13" d="m690.9 307.5c6.5-0.1 10.1 5.8 6 10.6-4.1 4.8-13.5 3.9-13.5 3.9l-0.8 1.7c-1.4-0.7-3.2-2.9-1.9-6.6 1.5-4.4 4.3-9.5 10.2-9.6z"/>
					</g>
					<g id="&lt;Group&gt;">
						<g id="&lt;Group&gt;">
							<path id="&lt;Path&gt;" class="s2" d="m678.3 160.8c0 0-6.1 18.8-0.6 36l9.2 34.9c11.5-0.7 21.1-2.2 25.6-10.9 0 0-7.3-25.5-10.9-36.9-3.3-10.3-5.6-19.8-23.3-23.1z"/>
							<path id="&lt;Path&gt;" class="s5" d="m678.3 160.8c0 0-6.1 18.8-0.6 36l9.2 34.9c11.5-0.7 21.1-2.2 25.6-10.9 0 0-7.3-25.5-10.9-36.9-3.3-10.3-5.6-19.8-23.3-23.1z"/>
						</g>
					</g>
				</g>
			</g>
			<g id="Woman 2 ">
				<g id="&lt;Group&gt;">
					<g id="&lt;Group&gt;">
						<g id="&lt;Group&gt;">
							<g id="&lt;Group&gt;">
								<path id="&lt;Path&gt;" class="s8" d="m455.6 494.7c-0.4 2.6-1.1 5.7-1.3 13-0.1 7.9-1.6 10.7-1.7 17.2-0.3 7.4 1 10.2 4 14.3 3 4.2 10.9 8 14.2 0.9 3.4-7.1 2.9-11.6 1.9-18.9-1.1-7.5-1.3-11.6-1.9-17.3-0.6-5.1-1.2-8.9-1.2-8.9z"/>
							</g>
							<path id="&lt;Path&gt;" class="s13" d="m481.8 425.1l-26-0.5c0.4 17.4-0.7 53.8-0.2 70.1 0.1 3.1-0.1 23.9 1.1 30.2 1.7 9.4 13 8.2 13.6 2.5 0.5-5.7-0.8-29.9-0.7-32.4-0.1-10.5 8.5-45.3 11.1-64 0.1-0.9 0.9-5 1.1-5.9z"/>
						</g>
						<g id="&lt;Group&gt;">
							<g id="&lt;Group&gt;">
								<path id="&lt;Path&gt;" class="s8" d="m515 481.8c0 0-1.3 0.1-1.5 1.2-0.2 1.2-0.3 3.2-0.8 5.3-0.8 2.9-1.4 7.7-0.9 10 0.4 2.4 5.8 5.9 9.5 6.5 3.6 0.6 8.8 4.3 11.7 7 3.6 3.3 11.2 6.5 16.4 6.4 6.1 0 10.4-2 12.4-5.3 2.1-3.5-1.8-3.7-8.9-8.3q-2.3-1.5-5.4-3.5c-11.1-7.3-15.2-11.2-18.3-18.4z"/>
							</g>
							<path id="&lt;Path&gt;" class="s13" d="m529.1 477.7c-0.2-5.2 3.2-51.6 3.2-51.6l-20.7 2.7c2.9 36.5 4 49 3.4 53.4-0.1 0.1-0.2 0.6-0.2 1.3 0.1 6 6.8 9.2 12 13.2 2.1 1.5 7.4 6.4 13.7 8.5 4 1.4 11.5 1.9 12.4-0.6-6.3-4.8-15-11.2-20.1-16.8-2.4-2.6-3.5-4.9-3.7-10.1z"/>
						</g>
						<path id="&lt;Path&gt;" class="s2" d="m462.6 261.8c-7.4 32.5 0 109.5 0 109.5-0.3 4-4.9 11.9-6.6 29.6-2.1 21-1 84.2-1 84.2 0 0 7.7 4.2 15.8 0.3 0 0 17.1-89.5 19.7-110.4 2.3-18.1 11.8-62 11.8-62l10.5 61.9c0 0-3.2 10.2-4 18-1.2 12.2 5.7 80.6 5.7 80.6 0 0 7.1 3.1 15.1-0.2 0 0 8.7-86.4 9.9-101.1 1.4-19.8-1.7-81.3-3.7-110.1z"/>
						<path id="&lt;Path&gt;" class="s16" d="m462.6 261.8c-7.4 32.5 0 109.5 0 109.5-0.3 4-4.9 11.9-6.6 29.6-2.1 21-1 84.2-1 84.2 0 0 7.7 4.2 15.8 0.3 0 0 17.1-89.5 19.7-110.4 2.3-18.1 11.8-62 11.8-62l10.5 61.9c0 0-3.2 10.2-4 18-1.2 12.2 5.7 80.6 5.7 80.6 0 0 7.1 3.1 15.1-0.2 0 0 8.7-86.4 9.9-101.1 1.4-19.8-1.7-81.3-3.7-110.1z"/>
						<path id="&lt;Path&gt;" class="s5" d="m502.3 313l2.7-18.5c0 0 15.6-2.1 22.7-8.8 0 0-5.3 9.8-18.4 11.7l-2.8 16.7 5.2 54.6z"/>
					</g>
					<g id="&lt;Group&gt;">
						<g id="&lt;Group&gt;">
							<path id="&lt;Path&gt;" class="s17" d="m533.3 218.3l-0.6 13.8c3.6 21 3.9 33 3.9 33-29 15.5-69.5 5.9-75-0.5 1.1-11.4 11.7-26.5 14.7-31.7l-5.9-23.2c0 0 16-14.4 3.5-37.9l16.6-1.8 21.7-0.7 5 0.2c4.2 3.2 12.6 8.8 18 18.9 2.9 5.6 6.5 14.8-1.9 29.9z"/>
						</g>
					</g>
					<path id="&lt;Path&gt;" class="s13" d="m476.5 171.5c-13.4 0.5-16.2 9.7-24.7 21.7-6.1 8.6-16.3 22-16.3 22 0 0-17.6-25.7-18.6-29.6-1.1-4.6 0.4-6.6 0-11.7-0.3-5.1-1.3-8.4-0.6-10.7 0.8-2.3-3.5-1.9-4.5 1-1.1 3-0.5 6.6-1.8 6.2-1.3-0.4-3.9-7.9-4.1-13.7-0.3-5.8-3.8-6.6-4.5-4.6-0.8 2.1-0.9 3.4-0.9 3.4 0 0-4.8-0.5-7 3.3-2.1 3.9-3.6 9.2-1.8 17.5 1.9 8.3 7.5 13.6 9.5 16.9 2.9 5 13.3 34.1 24.7 47.9 5.2 6.3 11.4 4.2 16.1-0.7 7.3-7.7 30-31.7 30-31.7 9.2-8.7 12.7-31 4.5-37.2z"/>
					<g id="&lt;Group&gt;">
						<path id="&lt;Path&gt;" class="s14" d="m506.1 158.6l-7.2 0.2c-16.4 0.7-30.3-12.1-30.9-28.6-0.7-18.4 13.7-33.9 32.1-34.6 18.4-0.8 33.9 13.6 34.7 32 0.6 16.5-12.2 30.3-28.7 31z"/>
						<path id="&lt;Path&gt;" class="s14" d="m451 174.9c12.7-0.4 22.6-11.1 22.1-23.8l-1-26.5c-12.7 0.5-22.6 11.2-22.1 23.9z"/>
						<g id="&lt;Group&gt;">
							<path id="&lt;Path&gt;" class="s13" d="m520.6 108.8c3.7 2 8.5 10.9 8.8 30.1 0.3 16.3-4.8 20.5-7.4 21.8-2.6 1.2-7.8 0.7-12.8 0.1l0.4 9.8c0 0 9.2 13.9 5 17.1-6.6 5-16.9-1-19.9-4.3-5.6-6.3-6.8-11.3-6.8-11.3l-0.7-22.4c0 0-2.8 2.9-8-1.2-4.2-3.4-5.8-9.4-2.7-12.8 3-3.3 9-2.7 11.4 1.8 0 0 3 2.9 5.7-2.7 19-3.4 28.3-16.9 27-26z"/>
						</g>
						<g id="&lt;Group&gt;">
							<path id="&lt;Path&gt;" class="s8" d="m508.8 134.2c0.1 1.1-0.8 2.2-1.9 2.3-1.1 0.1-2.1-0.8-2.2-2-0.1-1.2 0.7-2.2 1.8-2.3 1.2-0.1 2.2 0.8 2.3 2z"/>
						</g>
						<g id="&lt;Group&gt;">
							<path id="&lt;Path&gt;" class="s6" d="m512.2 149.3l4.8 1.3c-0.3 1.4-1.7 2.2-3 1.9-1.4-0.4-2.2-1.8-1.8-3.2z"/>
						</g>
						<g id="&lt;Group&gt;">
							<path id="&lt;Path&gt;" class="s8" d="m526.5 127.6l-4.3-2.7c0.7-1.3 2.2-1.6 3.4-0.9 1.2 0.8 1.6 2.4 0.9 3.6z"/>
						</g>
						<g id="&lt;Group&gt;">
							<path id="&lt;Path&gt;" class="s8" d="m506.8 126.5l-4.6 2c-0.6-1.3-0.1-2.8 1.2-3.3 1.3-0.6 2.8 0 3.4 1.3z"/>
						</g>
						<g id="&lt;Group&gt;">
							<path id="&lt;Path&gt;" class="s8" d="m525.6 133.5c0.1 1.2-0.8 2.2-1.9 2.3-1.1 0.1-2.1-0.8-2.2-1.9-0.1-1.2 0.7-2.2 1.8-2.3 1.2-0.1 2.2 0.7 2.3 1.9z"/>
						</g>
						<g id="&lt;Group&gt;">
							<path id="&lt;Path&gt;" class="s6" d="m515.1 132.7l0.8 12.3 6.4-2.2z"/>
						</g>
						<g id="&lt;Group&gt;">
							<path id="&lt;Path&gt;" class="s6" d="m509.2 160.8c-5.2-0.5-16.1-3.2-17.9-7.3 0 0 0.6 2.6 3.9 5.2 3.4 2.7 14.2 5.4 14.2 5.4z"/>
						</g>
						<path id="&lt;Path&gt;" class="s14" d="m468.4 126.4l-9.1 0.3c-0.2-2.5 1.7-4.7 4.2-4.8 2.5-0.1 4.7 1.9 4.9 4.5z"/>
						<path id="&lt;Path&gt;" class="s14" d="m468.1 125.8l-6.3-6.6c1.8-1.8 4.6-1.8 6.4 0 1.7 1.8 1.7 4.7-0.1 6.6z"/>
						<path id="&lt;Path&gt;" class="s14" d="m487.9 137.5l0.3 8.6c3.2-0.1 5.7-2.8 5.6-6l-0.3-7.9z"/>
					</g>
				</g>
				<path id="&lt;Path&gt;" class="s1" d="m484 214.2c0 0 4 8.5 15.6 8.9 12.4 0.4 17.6-8.4 17.6-8.4 0 0-1 11.3-17.6 11.3-14.4 0-15.6-11.8-15.6-11.8z"/>
			</g>
			<g id="Kid 1 ">
				<path id="&lt;Path&gt;" class="s14" d="m780.9 299l-35.1-2.2 2.2-33.5c1.1-15.7 16.4-27.6 32.1-26.6 15.7 1.1 27.5 14.6 26.5 30.3l-0.7 10.1c-0.9 13-12.1 22.7-25 21.9z"/>
				<g id="&lt;Group&gt;">
					<path id="&lt;Path&gt;" class="s13" d="m745.9 375.1l58.9 1.3c1.4 27.3 2.6 67.5 2.6 67.5 0.3 3.7 3.6 9.7 3.9 23.4 0.6 21-0.1 40 0.1 44.8l0.3 8.7 0.1 0.3h-0.1c-0.3 4.1-13.4 8.3-13.4 5.7 0 0 1.7-2.9-1-16.1-1.8-9.3-11.4-42.1-15.2-60.5-3.1-14.8-7.8-39.7-7.8-39.7l-5.4 32.2c0 0 1.1 11.4 0.2 19.5-1.8 14.4-4.7 34.9-5 42.8 0.8 10.5-7.4 9.1-13.4 8 0 0 0-0.9-0.1-3.2l-0.2-4.7c-1-11-4.8-53.3-5.6-64.9-1.7-22.4 1-47.9 1.1-65.1z"/>
					<g id="&lt;Group&gt;">
						<path id="&lt;Path&gt;" class="s14" d="m813.5 529.6c0.7 0.2 0.3 2.4 0 3.1-0.3 0.6-1.9 2.2-3.7 2.8-1.8 0.6-5 2.2-5.9 4.4-1 2.2-2.1 5.1-6.9 7.3-4.8 2.2-9.8 2.5-13.7 1.4-3.8-1.1-5-3.1-5.2-4-0.3-1-0.1-4-0.1-4z"/>
						<g id="&lt;Group&gt;">
							<path id="&lt;Path&gt;" class="s2" d="m808.1 533.8c2.5-1.1 3.9-1.5 5.3-3.4 0.4-4.6-1-5.8-0.8-8.3 0.3-4.9-0.4-4.6-1-4.3 0 0.6 0 1.9 0 1.9-0.2 0.6-1.1 2-1.6 2.3-0.7 0.4-1.6 0.5-2.4 0.4-0.4 0-0.7-0.1-1-0.3-0.3-0.2-0.4-0.6-0.6-0.9-0.5-1-1.1-1.9-2-2.6-1.9-1.4-4.1-1.7-6.5-1.4-0.2 0.1-0.5 0.1-0.7 0.3-0.6 0.3-0.5 1.1-0.6 1.8-0.6 2.6-3.1 5.6-5.4 7.9-1.8 1.8-3 3-5.2 4.4-2.7 1.8-4 2.5-5.4 4-1.5 1.6-2.4 4.4-1.7 6.8 0.6 1.9 2.2 3 3.8 3.6 1.7 0.6 3.3 0.9 5.1 1 2.6 0.2 3.9-0.1 6.5-0.9 3.2-0.9 6.2-3.3 7.8-6.2 1.5-2.7 3.4-4.8 6.4-6.1z"/>
							<path id="&lt;Path&gt;" class="s16" d="m808.1 533.8c2.5-1.1 3.9-1.5 5.3-3.4 0.4-4.6-1-5.8-0.8-8.3 0.3-4.9-0.4-4.6-1-4.3 0 0.6 0 1.9 0 1.9-0.2 0.6-1.1 2-1.6 2.3-0.7 0.4-1.6 0.5-2.4 0.4-0.4 0-0.7-0.1-1-0.3-0.3-0.2-0.4-0.6-0.6-0.9-0.5-1-1.1-1.9-2-2.6-1.9-1.4-4.1-1.7-6.5-1.4-0.2 0.1-0.5 0.1-0.7 0.3-0.6 0.3-0.5 1.1-0.6 1.8-0.6 2.6-3.1 5.6-5.4 7.9-1.8 1.8-3 3-5.2 4.4-2.7 1.8-4 2.5-5.4 4-1.5 1.6-2.4 4.4-1.7 6.8 0.6 1.9 2.2 3 3.8 3.6 1.7 0.6 3.3 0.9 5.1 1 2.6 0.2 3.9-0.1 6.5-0.9 3.2-0.9 6.2-3.3 7.8-6.2 1.5-2.7 3.4-4.8 6.4-6.1z"/>
							<path id="&lt;Path&gt;" class="s0" d="m801.8 525.2c-1.2-1-4.1-2.8-7.3-2.4 0 0-1.3 0.3-1.1 1.6 0 0 3.9-0.6 7.7 2.5 0.5 0.4 0.9 0.4 1.3-0.1 0.4-0.5-0.2-1.2-0.6-1.6z"/>
							<path id="&lt;Path&gt;" class="s0" d="m799.7 528.5c-1.1-0.7-3.8-2.9-7.7-2.5 0 0-1.6 0.4-1.7 1.6 0 0 3.6-0.9 8.2 2.5 0.6 0.4 1.3 0.4 1.6-0.3q0 0 0 0c0.1-0.5-0.1-1-0.4-1.3z"/>
							<path id="&lt;Path&gt;" class="s0" d="m796.9 533.3c0.3-0.4 0.2-1.1-0.2-1.4-1.2-1-4.3-3.2-7.7-2.9 0 0-1.9 0.6-2.1 1.8 0 0 4.7-0.5 8.3 2.7 0.5 0.4 1.3 0.4 1.7-0.2q0 0 0 0z"/>
							<path id="&lt;Path&gt;" class="s17" d="m794.6 537.8c2.9 3.4 2.2 6.9 2.2 7q-1.4 0.9-2.9 1.3c-2.6 0.8-3.9 1.1-6.5 0.9-1.8-0.1-3.4-0.4-5.1-1-1.6-0.6-3.9-1.8-4.5-3.7-0.7-2.4 0.5-5.6 1.9-7.2q1-1.1 2.6-1.7 0 0 0 0c3.5-1.1 9.3 1 12.3 4.4z"/>
						</g>
					</g>
					<g id="&lt;Group&gt;">
						<path id="&lt;Path&gt;" class="s14" d="m766 515.2c0.7 0.2 0.4 2.3 0 3-0.3 0.7-1.9 2.2-3.7 2.8-1.8 0.6-4.9 2.3-5.9 4.5-1 2.2-2 5.1-6.8 7.3-4.8 2.2-9.9 2.5-13.7 1.3-3.9-1.1-5.1-3-5.3-4-0.2-1 0-4 0-4z"/>
						<g id="&lt;Group&gt;">
							<path id="&lt;Path&gt;" class="s2" d="m760.6 519.4c2.6-1.1 4-1.6 5.4-3.5 0.4-4.5-1-5.8-0.9-8.3 0.3-4.9-0.4-4.5-0.9-4.3-0.1 0.6 0 1.9 0 1.9-0.2 0.6-1.1 2-1.7 2.3-0.7 0.5-1.5 0.6-2.4 0.4-0.3 0-0.7-0.1-0.9-0.3-0.3-0.2-0.5-0.5-0.7-0.8-0.5-1-1.1-2-2-2.6-1.9-1.5-4-1.8-6.4-1.4-0.3 0-0.6 0.1-0.8 0.2-0.5 0.4-0.4 1.2-0.6 1.8-0.6 2.7-3.1 5.6-5.4 7.9-1.8 1.8-3 3.1-5.1 4.5-2.8 1.7-4.1 2.4-5.5 3.9-1.4 1.6-2.3 4.5-1.7 6.8 0.6 1.9 2.2 3 3.9 3.7 1.7 0.6 3.2 0.9 5 1 2.7 0.1 4-0.2 6.5-0.9 3.2-1 6.2-3.3 7.8-6.2 1.5-2.7 3.5-4.9 6.4-6.1z"/>
							<path id="&lt;Path&gt;" class="s16" d="m760.6 519.4c2.6-1.1 4-1.6 5.4-3.5 0.4-4.5-1-5.8-0.9-8.3 0.3-4.9-0.4-4.5-0.9-4.3-0.1 0.6 0 1.9 0 1.9-0.2 0.6-1.1 2-1.7 2.3-0.7 0.5-1.5 0.6-2.4 0.4-0.3 0-0.7-0.1-0.9-0.3-0.3-0.2-0.5-0.5-0.7-0.8-0.5-1-1.1-2-2-2.6-1.9-1.5-4-1.8-6.4-1.4-0.3 0-0.6 0.1-0.8 0.2-0.5 0.4-0.4 1.2-0.6 1.8-0.6 2.7-3.1 5.6-5.4 7.9-1.8 1.8-3 3.1-5.1 4.5-2.8 1.7-4.1 2.4-5.5 3.9-1.4 1.6-2.3 4.5-1.7 6.8 0.6 1.9 2.2 3 3.9 3.7 1.7 0.6 3.2 0.9 5 1 2.7 0.1 4-0.2 6.5-0.9 3.2-1 6.2-3.3 7.8-6.2 1.5-2.7 3.5-4.9 6.4-6.1z"/>
							<path id="&lt;Path&gt;" class="s0" d="m754.3 510.8c-1.1-1.1-4-2.9-7.2-2.4 0 0-1.3 0.3-1.2 1.5 0 0 3.9-0.6 7.8 2.5 0.4 0.4 0.9 0.5 1.3-0.1 0.4-0.5-0.2-1.2-0.7-1.5z"/>
							<path id="&lt;Path&gt;" class="s0" d="m752.2 514.1c-1.1-0.8-3.8-2.9-7.7-2.6 0 0-1.6 0.4-1.6 1.7 0 0 3.6-1 8.2 2.4 0.5 0.5 1.3 0.4 1.5-0.3q0 0 0 0c0.2-0.4 0-0.9-0.4-1.2z"/>
							<path id="&lt;Path&gt;" class="s0" d="m749.4 518.8c0.3-0.4 0.2-1-0.2-1.4-1.1-1-4.3-3.1-7.6-2.8 0 0-1.9 0.5-2.2 1.7 0 0 4.7-0.5 8.4 2.8 0.5 0.4 1.2 0.3 1.6-0.2q0 0 0-0.1z"/>
							<path id="&lt;Path&gt;" class="s17" d="m747.1 523.4c3 3.3 2.2 6.9 2.2 7q-1.4 0.8-2.9 1.3c-2.5 0.7-3.8 1-6.5 0.9-1.8-0.1-3.3-0.4-5-1-1.7-0.7-4-1.9-4.5-3.8-0.7-2.4 0.4-5.6 1.9-7.2q1-1.1 2.6-1.6c3.4-1.1 9.3 1 12.2 4.4z"/>
						</g>
					</g>
				</g>
				<g id="&lt;Group&gt;">
					<path id="&lt;Path&gt;" class="s17" d="m793.4 304.8c5.4 0.9 9.7 5 10.9 10.4 0.6 2.6 1 5.8 1 9.4l-2.2 30.4 2.2 26.6c-8.7 9.5-40.5 12.2-59.5-1.7 0 0 0.9-48.5 2.3-58 2.5-16.6 11.4-21.7 19.4-21.1l19.1 2.7z"/>
				</g>
				<path id="&lt;Path&gt;" class="s2" d="m746.1 363.7l-18 53.7c0 0 4.8 18.1 47 17.3 42.2-0.8 46-20.6 46-20.6l-17-47.5z"/>
				<path id="&lt;Path&gt;" class="s7" d="m803.1 355c0 0-27.2 12.6-56.6-2.3-0.3 4.2-0.5 7.9-0.4 11 0 0 5.6 8.5 27.7 8.7 20 0.2 30.3-5.8 30.3-5.8-0.1-4.2-0.3-8.1-1-11.6z"/>
				<g id="&lt;Group&gt;">
					<path id="&lt;Path&gt;" class="s13" d="m824.2 384.3c-0.4 5.6-0.8 10.5-0.9 14.7-0.5 12.9-4.4 16.3-7.2 17-7.8 1.8-11-1.6-8.3-7.4q1-2.1 1.6-4.4c0.1-0.4 1-3.2-0.1-2.7-0.3 0.2-0.4 0.4-0.6 0.6-1.1 1.3-2.8 2-4.5 1.9-0.3 0-0.7-0.1-0.9-0.4-0.3-0.5 0-1.1 0.4-1.6q2.3-3.2 4.1-6.7c1-1.9 2.5-4.3 2.7-6.5 0.1-1.6 0.2-26.7-1.3-32.7l-12.8-23.4c-5-11.1-7.6-23.1-1.8-27.7 13.3 0.9 15 10.4 29.6 40.7 3.2 6.7 0.7 29.8 0 38.6z"/>
				</g>
				<path id="&lt;Path&gt;" class="s13" d="m791.6 274.7c1 0.7 1.3 1.1 2.1-0.7 1.9-3.7 8-4.7 9.8 0 1.9 4.9-2.7 10.7-6.2 11.5-6.1 1.4-6.7-2.4-6.7-2.4l-2.1 21.3c0 0-4.5 9.1-15.1 9.8-10.6 0.6-9.8-8.2-6.1-12.2l0.5-6c0 0-3.8 0.1-7.7-1.3-3.3-1.2-5.7-3.4-7.5-8.6-2.4-7.1-2.2-14.6 1-28.4 3.8-16 23.8-15 33.5-7.7 9.8 7.2 4.5 24.7 4.5 24.7z"/>
				<path id="&lt;Path&gt;" class="s14" d="m793.7 274l-0.4 4.8c-2.5-0.2-4.4-2.3-4.3-4.8l0.5-10 6.5 1.7z"/>
				<path id="&lt;Path&gt;" class="s14" d="m773.5 237.1c-14.4-1.5-27.4 9-28.8 23.5l-0.4 3.4 12.9 1.3c5.9 0.6 11.4-3.3 12.8-9.1l-0.5 10.4c4.9 0.5 9.4-2.9 10.3-7.7l0.3-1.7c-0.1 5.9 4.3 10.9 10.2 11.5l3.1 0.1 1.2-18.4z"/>
				<g id="&lt;Group&gt;">
					<path id="&lt;Path&gt;" class="s8" d="m772.8 271.8c-0.1 1.3 0.8 2.4 2 2.5 1.3 0 2.3-0.9 2.4-2.2 0.1-1.2-0.8-2.3-2-2.4-1.2-0.1-2.3 0.9-2.4 2.1z"/>
					<path id="&lt;Path&gt;" class="s8" d="m776.2 265.4l4.4 3c0.8-1.3 0.5-3-0.8-3.8-1.2-0.8-2.8-0.5-3.6 0.8z"/>
					<path id="&lt;Path&gt;" class="s6" d="m771.8 284.6l-6.1 1.8c0.5 1.8 2.2 2.8 3.9 2.3 1.7-0.5 2.7-2.3 2.2-4.1z"/>
					<path id="&lt;Path&gt;" class="s8" d="m753.8 263.5l5.2-1.5c-0.4-1.5-1.8-2.3-3.3-1.9-1.4 0.4-2.3 1.9-1.9 3.4z"/>
					<path id="&lt;Path&gt;" class="s8" d="m755.3 270.7c-0.1 1.3 0.8 2.4 2 2.5 1.2 0 2.3-0.9 2.4-2.2 0.1-1.2-0.8-2.3-2-2.4-1.3-0.1-2.3 0.9-2.4 2.1z"/>
					<path id="&lt;Path&gt;" class="s6" d="m767 268.9l-1.5 11.7-6-2.6z"/>
				</g>
				<path id="&lt;Path&gt;" class="s6" d="m767.8 296c0 0 10.5-0.2 15.5-2.9 2.2-1.2 4.4-3 5-4.3 0 0-0.8 2.9-3.1 5.3-5.1 5.1-17.6 4.5-17.6 4.5z"/>
			</g>
		</g>
	</g>
	<g id="Family 1">
		<g id="Family 1 2 ">
			<g id="Woman 5 ">
				<path id="&lt;Path&gt;" class="s18" d="m416 407.6l-18.1 41c0 0-27.6 23.2-47.7 41.1-1.5-5.2-3.2-24.3-3.2-24.3 8.5-10.5 29.1-31.8 32.4-35.5 11.7-12.9 22.5-23.4 36.6-22.3z"/>
				<g id="&lt;Group&gt;">
					<path id="&lt;Path&gt;" class="s8" d="m309.2 474.3l-26.2-0.2 0.9-109c0.1-19 15.7-34.3 34.8-34.2h2.9c19.1 0.2 34.4 15.8 34.2 34.8l-0.5 63.2c-0.2 25.3-20.9 45.6-46.1 45.4z"/>
				</g>
				<g id="&lt;Group&gt;">
					<path id="&lt;Path&gt;" class="s12" d="m338.1 411c8.4 0.7 14.5 2.5 26.6 18.9 5 6.8 22 31.7 27.8 40.2 5.7 0.9 17.9 4.3 17.9 4.3 4.9 4.8 1.7 16 0.9 20.2l-23.6-2.2c-3.2-0.3-6.1-1.8-8.1-4.2-17.7-20-29.4-34.4-29.4-34.4z"/>
				</g>
				<g id="&lt;Group&gt;">
					<path id="&lt;Path&gt;" class="s12" d="m326.1 731.8c9.1-29.6 30.8-90.4 33.9-99.6 4-11.7 0.4-101-5.7-127.3l-69.5-1.1c-15.4 21.2-15.4 40.7-10.8 89 2.2 23 5.2 49.5 5.2 49.5 0 0-7.9 15.8-5.6 42.3 1 11.7 4.3 47.5 6.8 62.8 0.5 4.3 0.9 8.5 1 12.4 0.1 1.1 0.2 2 0.2 3.1v2.5c0 0 17.6 14 17.6-5v-2.7l0.8-11.4c1-13.3 3.3-37.8 5.1-53.7 2.9-27 4.3-41.5 5.9-55.5 2.2-19.2 6.2-81.5 6.2-81.5l10.4 74c0 0-9 12.5-11.1 28.5-1.1 8.6-3.9 27.1-5.9 48.2-0.7 8.4-1.2 16.8-2.2 25.2-0.2 1.6-0.4 3.3-0.6 5.1 0 0 16.8 2.9 17.2 0.8 0.6-2.7 1.1-5.6 1.1-5.6z"/>
					<path id="&lt;Path&gt;" class="s7" d="m283.6 505.6c-3.6 5.1-10.9 15.6-12.3 33.5-1.3 18-2.4 73.1-2.4 73.1 0 0 3.4 13.1 48.3 10.4 44.9-2.8 46.8-13.9 46.8-13.9 0 0-1.6-35.1-2.9-52.8-1.4-17.8-2.8-45.4-8.2-56z"/>
					<g id="&lt;Group&gt;">
						<g id="&lt;Group&gt;">
							<path id="&lt;Path&gt;" class="s8" d="m278.7 774.1c-0.8 3.8 0.4 14.1 0.4 14.1 0 0 1.7 3.5 7.6 5.7l2.2-14.4z"/>
							<path id="&lt;Path&gt;" class="s3" d="m286.7 793.9l12.7-4.5 2.8-11.5-14.2 7.7z"/>
							<path id="&lt;Path&gt;" class="s14" d="m299.2 760.4v-2.7c1.8 0.8 5.9 14.7 11.4 24.2 4.9 8.7 14.4 13.3 17.5 17.1 4.2 5-3.5 11.8-16.3 9.4-6.3-1.2-16-5-18.7-9.2-2.6-4.2-3.7-12-5.9-15.1-2.2-3-7.3-6.5-8.5-10-0.6-2-1.2-6.3-0.2-9.9 0.9-3.2 1.7-7.2 2.8-6.9l0.1 2.5c0.9 1.7 4 3.7 10.5 3.9 3 0 6-0.5 7.3-3.3z"/>
						</g>
					</g>
					<g id="&lt;Group&gt;">
						<g id="&lt;Group&gt;">
							<path id="&lt;Path&gt;" class="s8" d="m302.7 745.7c-1.3 3.7-1.2 14-1.2 14 0 0 1.4 3.7 7 6.6l3.7-14.1z"/>
							<path id="&lt;Path&gt;" class="s3" d="m308.5 766.3l13.1-3.2 4-11.1-15 6.1z"/>
							<path id="&lt;Path&gt;" class="s14" d="m325.1 734.9l1-3.1c1.6 1 3 15.1 7.4 25.1 4 9.1 12.9 14.8 15.6 18.9 3.7 5.4-4.8 11.3-17.2 7.6-6.2-1.9-15.4-6.7-17.6-11.2-2.2-4.4-2.5-12.3-4.3-15.6-1.9-3.3-6.6-7.3-7.3-10.9-0.5-2 0.8-6.1 2.2-9.5 1.3-3.2 2.6-7 3.7-6.6l-0.3 2.5c0.7 1.8 2.2 3.8 8.5 4.6 3.1 0.5 6.7 0.8 8.3-1.8z"/>
						</g>
					</g>
				</g>
				<g id="&lt;Group&gt;">
					<path id="&lt;Path&gt;" class="s2" d="m352.2 488.1c1-4.6 2.2-13.4 2.9-19.8 11.7-10.9 8.4-22.9 4.1-31.6-8.5-17.6-17.5-25.7-21.4-25.7h-24c-11.5 1.3-19.3 2.6-22.1 3.2-7.1 1.6-6.9 6.7-7.3 14.2-0.5 8.3-1.2 9.6 0.8 23.2l9.6 21 0.9 12.8c0 0-18.4 22.7-22.7 40.3 0 0 10.5-4.5 17.2-12.3 0 0 7.1 17.8 36.9 15.7 22.6-1.6 30-14.9 30-14.9z"/>
					<path id="&lt;Path&gt;" class="s5" d="m287.1 497.2c0 2.6 3.3 7.4 6 7.6 2.7 0.2 4.4-0.4 5.9-3.8 1.4-3.3 0-11.8 0-11.8l-11.6 7.6z"/>
					<path id="&lt;Path&gt;" class="s18" d="m295.1 476.8c0.3 4.6 2.9 8.8 4.3 11.4 1.4 2.5-0.1 16.2-6.3 14.2-4.9-1.6-7.3-6.6-6.7-13.6 0.4-3.3 1.5-10.2 2.9-12.9 1.6-3.1 4.8-4.9 4.8-4.9l0.7 1.6z"/>
					<path id="&lt;Path&gt;" class="s5" d="m304.9 457.7c0 0 3.3 10.8 16.4 12.1 12 1.2 18-8.3 18-8.3 0 0-2.2 13.7-18.4 11.6-16.2-2.1-16-15.4-16-15.4z"/>
				</g>
				<g id="&lt;Group&gt;">
					<g id="&lt;Group&gt;">
						<path id="&lt;Path&gt;" class="s12" d="m341.1 345.4c3.9 2.3 9 12 9.1 32.8 0 17.6-5.6 22.1-8.5 23.4-2.8 1.3-8.3 0.7-13.7-0.1l0.2 10.6c0 0 15.3 15.8 3 17.7-6.2 0.9-14-2.8-19.3-6.8-5.5-4.1-7.1-10.9-7.1-10.9l-0.5-23c0 0-3.1 3.2-8.5-1.4-4.5-3.7-6.2-10.2-2.8-13.8 3.3-3.6 9.7-2.8 12.3 2.1 0 0 3.1 0.2 6.2-5.7 0 0 8 0.6 16.6-3.1 14.1-6.1 14.5-17.2 13-21.8z"/>
					</g>
					<g id="&lt;Group&gt;">
						<path id="&lt;Path&gt;" class="s8" d="m327.3 373.2c0.1 1.3-0.8 2.4-2 2.5-1.2 0-2.3-0.9-2.4-2.2-0.1-1.2 0.8-2.3 2-2.4 1.3-0.1 2.3 0.8 2.4 2.1z"/>
					</g>
					<g id="&lt;Group&gt;" style="opacity: .5;mix-blend-mode: multiply">
						<path id="&lt;Path&gt;" class="s19" d="m330.4 388.7l5.7 1.7c-0.4 1.6-2 2.6-3.6 2.1-1.6-0.5-2.6-2.2-2.1-3.8z"/>
					</g>
					<g id="&lt;Group&gt;">
						<path id="&lt;Path&gt;" class="s8" d="m347.1 365.8l-4.5-2.9c0.8-1.3 2.4-1.7 3.7-0.9 1.2 0.8 1.6 2.6 0.8 3.8z"/>
					</g>
					<g id="&lt;Group&gt;">
						<path id="&lt;Path&gt;" class="s8" d="m324.8 364.2l-5 2c-0.6-1.3 0-2.9 1.4-3.5 1.4-0.6 3 0.1 3.6 1.5z"/>
					</g>
					<g id="&lt;Group&gt;">
						<path id="&lt;Path&gt;" class="s8" d="m346.1 372.3c0.1 1.2-0.8 2.3-2.1 2.4-1.2 0.1-2.2-0.9-2.3-2.1-0.1-1.3 0.8-2.4 2-2.5 1.2-0.1 2.3 0.9 2.4 2.2z"/>
					</g>
					<g id="&lt;Group&gt;" style="opacity: .5;mix-blend-mode: multiply">
						<path id="&lt;Path&gt;" class="s19" d="m335.4 371.3l0.7 13.3 7-2.4z"/>
					</g>
					<g id="&lt;Group&gt;" style="opacity: .5;mix-blend-mode: multiply">
						<path id="&lt;Path&gt;" class="s19" d="m328 401.5c-5.7-0.6-17.4-3.7-19.3-8.2 0 0 0.7 2.9 4.2 5.8 3.6 2.8 15.2 5.9 15.2 5.9z"/>
					</g>
					<path id="&lt;Path&gt;" class="s8" d="m305.3 376l0.2 9.3c3.5-0.1 6.2-3 6.2-6.5l-0.2-8.5z"/>
				</g>
			</g>
			<g id="Woman 4 ">
				<g id="&lt;Group&gt;">
					<path id="&lt;Path&gt;" class="s8" d="m397.8 405h38.3c17.3 0 31.4-14.1 31.4-31.5v-7.1c0.3-20-15.2-36.5-34.4-36.8-19.2-0.2-35 15.8-35.3 35.8v2c0.2 18.4 0 37.6 0 37.6z"/>
					<path id="&lt;Path&gt;" class="s2" d="m445.2 374.9c0 0-8.9-5.1-18.7-11.7-10.2-6.9-15.7-15.7-15.7-15.7 0 0-0.4 14.5 9.2 22.3 9.5 7.9 23.5 8.1 23.9 8.1 0.4 0.1 1.3-3 1.3-3z"/>
					<path id="&lt;Path&gt;" class="s8" d="m460.9 346.4l7.9-4.6c-1.2-2.4-3.9-3.3-6.1-2-2.2 1.3-3 4.2-1.8 6.6z"/>
					<path id="&lt;Path&gt;" class="s8" d="m460.7 344l2.4-9.1c-2.4-0.8-4.9 0.6-5.6 3.1-0.6 2.5 0.8 5.2 3.2 6z"/>
				</g>
				<g id="&lt;Group&gt;">
					<path id="&lt;Path&gt;" class="s8" d="m399.2 740.8l-2.4-3.1c-1.2 7.2-8 15.2-14.5 21.2-5.2 4.7-12.9 10.5-12.7 15.3 0.2 5.8 9.8 7.4 14.7 6.5 5.6-1 12.9-4.2 16.8-9.1 2.8-3.4 6.8-7.9 8.8-10.6 2-2.7 6.5-5.7 7.6-8.8 0.6-1.7-0.1-5.5-0.9-8.6-0.8-2.9-1.6-6.1-2.6-5.9 0 0.4 0 1.8 0 1.8-1.2 1.4-6.7 3.1-10.4 3.3-2.4 0-4.4-0.1-4.4-2z"/>
					<g id="&lt;Group&gt;">
						<path id="&lt;Path&gt;" class="s8" d="m472.9 752.1c0.3 2.7 1.1 5.8 1.3 13.3 0.1 8.1 1.6 11 1.8 17.6 0.2 7.6-1.4 12.3-4.4 16.5-3.1 4.3-12.9 6-16.3-1.1-3.5-7.3-3-12-1.9-19.4 1.1-7.7 1.3-11.9 1.9-17.8 0.6-5.1 1.3-9 1.3-9z"/>
					</g>
					<path id="&lt;Path&gt;" class="s18" d="m476.3 660.1c-1.9-19.5-4.7-27.7-5.1-32.1 0 0 4.5-45.9 5.6-84.5 0.6-18.7 0.1-39.5-17.7-61.3l-57-0.9c-7 25.9-14 120.3-11.1 148.2 1.6 16.1 6.5 97.9 6.5 97.9v6.5c0 2.9-1.3 5.9-3.1 8.9-2.6 4.5-5.7 9.1-10.4 14.1-1.3 1.5-3.8 4.3-5.1 6-4 4.7-0.8 6.7 5.4 5.8 6.5-0.8 11.9-5.9 14.8-9.9 4.3-5.9 14-15.4 14.8-18.8l0.1-0.1v-0.4c0 0 0.4-5.1 0.9-11.3 0.6-6.2 10.7-56.2 10.9-74.2 0.1-8.5-2.1-21.3-2.1-21.3l7-65.7c0 0 3.8 47.3 6.3 67.2 2.2 17.4 11.5 68.5 16.8 91.5 1.9 8.7 2.9 17.5 2.8 26.4q0 0 0 0.1c0 2.5-0.9 23-0.1 28.7 1.6 12.1 12.3 11 14.4 1.4 1.8-8.2 1.9-27 2-30.2 0-2.2 0.2-4.8 0.3-7.4 0.2-1.7 5.3-61.9 3.1-84.6z"/>
					<path id="&lt;Path&gt;" class="s2" d="m402.1 481.3c0 0-3.9 16.3-6.3 36.3-2.5 20-6.9 76.1-6.3 94.1 0.6 18 3.9 60.3 3.9 60.3 0 0 3.7 4.3 15.7 4.8 12.1 0.4 15.5-3.9 15.5-3.9 0 0 1.9-14.7 1.9-22 0-9.2-2.2-18.6-2.2-18.6l6.7-62.5c0 0 2.4 40.9 5 63 2.6 22 7.5 45.5 7.5 45.5 0 0 3.7 4.8 18.5 4 14.8-0.8 15.8-7.2 15.8-7.2 0 0 0.5-27.3-5.7-46.4 0 0 4-56.1 4.9-70.1 0.8-14.1 3.4-46.3-10.2-66.3-13.5-20-18.2-20.3-18.2-20.3z"/>
					<path id="&lt;Path&gt;" class="s5" d="m431 569.8l-2.1-35.8c0 0-13.5-5.7-18.6-11.7 0 0 3.8 8.3 15.6 14.2l2.4 34.5-2.3 45.2z"/>
				</g>
				<path id="&lt;Path&gt;" class="s7" d="m448.7 409.8c0 0 7.8 1.5 7.4 1.4-4.1 20.1 9.3 37.4 9.3 37.4l-4.8 32.7c0.3 0.6 4 5.1 6.2 11-11.5 14.4-50.8 17.5-68.1 3.9 0.9-6 1.6-10.6 2.8-15.1l-2.7-19.1c-10-11.8-5.8-21.7-2.7-27.5 7.9-15.2 13.9-21.1 19.9-26.9l9.1-0.3z"/>
				<g id="&lt;Group&gt;">
					<path id="&lt;Path&gt;" class="s18" d="m454.5 410.9c11.4 1.4 16 10.8 21.7 20.1 5 8.2 10 18.3 15.7 26.3 5.1-8.7 16.8-23 21-30.1 4.2-7.1 3-10.9 4.6-15.6 2-5.8 2.5-8.8 2.9-13.6 0.5-4.8 4.5-1.7 5 2 0.4 2.9-1.9 8.1 0.9 7.3 2.8-0.9 6.7-11.5 7.4-14.5 0.8-3.3 2.6-6.6 5.3-5 1 0.6 0.8 1.9 0.7 4.1 2.3 0 4.3 1.2 5.6 6.9 1.4 5.6 1.7 12.8-2.3 20.2-4 7.4-5.6 7.1-13 17.4-7.4 10.3-20.4 37.8-30.3 49.7-6.2 7.5-11.1 6.9-17.5-0.5-7.7-9-15-22.1-22.8-32.8-7.9-10.8-12.4-29.8-4.9-41.9z"/>
				</g>
				<g id="&lt;Group&gt;">
					<path id="&lt;Path&gt;" class="s18" d="m410.8 347.5c-3.5 3.2-7.8 10.1-7.5 30.3 0.3 17.1 5.6 21.4 8.3 22.6 2.6 1.2 7.8 0.5 12.8-0.3v8.8c0 0-8.7 8.8-8.3 13.5 0.4 4.7 11.7 6.9 18.2 2.3 6.5-4.5 11.8-12.6 11.8-12.6l0.2-24.5c0 0 3 3 8-1.5 4.1-3.8 5.6-10.1 2.4-13.5-3.2-3.4-9.2-2.5-11.5 2.3 0 0-10.4-0.4-20.8-6.2-10.1-5.7-12.5-14.6-13.6-21.2z"/>
					<g id="&lt;Group&gt;">
						<path id="&lt;Path&gt;" class="s8" d="m411 372.3c0.1 1.2-0.8 2.2-1.9 2.2-1.2 0.1-2.2-0.8-2.2-2-0.1-1.2 0.8-2.2 1.9-2.3 1.2 0 2.2 0.9 2.2 2.1z"/>
					</g>
					<g id="&lt;Group&gt;">
						<path id="&lt;Path&gt;" class="s8" d="m428.6 372.8c0 1.1-0.9 2.2-2 2.2-1.1 0.1-2.1-0.9-2.2-2 0-1.2 0.8-2.2 2-2.3 1.1 0 2.1 0.9 2.2 2.1z"/>
					</g>
					<path id="&lt;Path&gt;" class="s20" d="m423.1 388.6l-4.8 1.6c0.4 1.4 1.8 2.2 3.1 1.8 1.3-0.4 2.1-1.9 1.7-3.4z"/>
					<path id="&lt;Path&gt;" class="s8" d="m405.4 366.4l4.2-3c-0.7-1.3-2.3-1.6-3.4-0.8-1.2 0.9-1.5 2.5-0.8 3.8z"/>
					<path id="&lt;Path&gt;" class="s8" d="m445.2 372.9v7.2c-1.9 0.1-3.5-1.5-3.5-3.5 0-2 1.5-3.6 3.5-3.7z"/>
					<path id="&lt;Path&gt;" class="s20" d="m417.5 370.7l0.1 14-6.6-2.1z"/>
					<path id="&lt;Compound Path&gt;" fill-rule="evenodd" class="s7" d="m446.8 372.6h-12.3q0 0.1 0 0.3c0 3.6-2.9 6.6-6.6 6.6h-1c-3.6 0-6.6-3-6.6-6.6q0-0.7 0.1-1.4v0.1c-0.6-1-2-1.7-3.5-1.8-1.2-0.1-2.3 0.3-2.9 1 0.2 0.6 0.4 1.3 0.4 2.1 0 3.6-3 6.6-6.6 6.6h-1c-3.7 0-6.6-3-6.6-6.6 0-3.7 2.9-6.6 6.6-6.6h1c2.5 0 4.6 1.4 5.7 3.4 0.9-0.7 2.1-1.1 3.4-1 1.6 0.1 3 0.7 3.9 1.6 1-2.3 3.3-4 6.1-4h1c3.2 0 5.8 2.2 6.5 5.2h13.8c-0.2 0.2-0.9 0.6-1.4 1.1zm-33.5 0.3c0-3.1-2.5-5.5-5.5-5.5h-1c-3.1 0-5.5 2.4-5.5 5.5 0 3 2.4 5.4 5.5 5.4h1c3 0 5.5-2.4 5.5-5.4zm20.1 0c0-3.1-2.5-5.5-5.5-5.5h-1c-3 0-5.5 2.4-5.5 5.5 0 3 2.5 5.4 5.5 5.4h1c3 0 5.5-2.4 5.5-5.4z"/>
					<path id="&lt;Path&gt;" class="s20" d="m424.4 400.1c5.3-0.7 16.2-3.9 17.9-8.4 0 0-0.6 2.8-3.8 5.7-3.3 2.9-14 6.1-14 6.1z"/>
				</g>
			</g>
			<g id="Kid 2 ">
				<g id="&lt;Group&gt;">
					<path id="&lt;Path&gt;" class="s12" d="m232.7 620.3l-66 1.6c-1.6 30.5-2.9 75.5-2.9 75.5-0.3 4.1-4 10.9-4.4 26.1-0.6 23.6 0.1 44.9-0.1 50.2l-0.4 9.7v0.4h0.1c0.4 4.6 15 9.3 15 6.4 0 0-1.9-3.3 1.1-18.1 2-10.3 12.7-47.1 17-67.6 3.5-16.7 8.8-44.5 8.8-44.5l6 36.1c0 0-1.3 12.7-0.2 21.8 1.9 16.1 5.2 39 5.5 47.9-0.9 11.7 8.4 10.2 15 8.9 0 0 0.1-1 0.2-3.5l0.2-5.3c1.1-12.4 5.4-59.7 6.3-72.7 1.9-25-1.1-53.6-1.2-72.9z"/>
					<path id="&lt;Path&gt;" class="s7" d="m166.6 620.3c0 0-1.3 17.4-1.7 27.6-0.4 10.2-1.5 46.5-2.6 50.7-1.2 4.3-4 15-4.1 24.4 0 0 11.2 10 29.7 5.5-0.1-0.7 4.8-16.8 6.9-27.7 2-10.9 5.5-31.3 5.5-31.3 0 0 3.9 22.9 4.2 27.2 0.3 4.4-1.6 16.6 0 30.8 0 0 7.6 3.2 16.2 2.2 8.6-1.1 12-5.6 12-5.6 0 0 1.9-28.4 2.4-39.3 0.6-10.9-0.9-50.2-2.4-64.5z"/>
					<path id="&lt;Path&gt;" class="s14" d="m200.3 669.5l1.8-10.9c0 0 14.5-1.2 20.9-8.5 0 0-2.2 9.6-17.4 11.1l-1.9 10.5 0.6 22.6c-1.2-7.9-2.5-16.2-4-24.8z"/>
					<g id="&lt;Group&gt;">
						<path id="&lt;Path&gt;" class="s14" d="m157 793.3c-0.8 0.3-0.4 2.7 0 3.4 0.3 0.8 2.1 2.5 4.1 3.2 2.1 0.7 5.5 2.5 6.6 5 1.2 2.5 2.3 5.7 7.7 8.2 5.3 2.4 11 2.8 15.3 1.5 4.3-1.3 5.7-3.4 5.9-4.5 0.3-1.1 0.1-4.5 0.1-4.5z"/>
						<g id="&lt;Group&gt;">
							<path id="&lt;Path&gt;" class="s2" d="m163 798c-2.8-1.2-4.4-1.7-6-3.8-0.4-5.1 1.1-6.5 1-9.3-0.4-5.5 0.4-5.1 1.1-4.8 0 0.6-0.1 2.1-0.1 2.1 0.3 0.7 1.3 2.2 1.9 2.6 0.8 0.5 1.8 0.6 2.7 0.5 0.4-0.1 0.7-0.2 1.1-0.4 0.3-0.2 0.5-0.6 0.7-1 0.6-1 1.2-2.1 2.2-2.9 2.2-1.6 4.5-1.9 7.2-1.5 0.3 0 0.6 0.1 0.9 0.3 0.6 0.4 0.5 1.2 0.7 1.9 0.6 3 3.4 6.4 6 8.9 2 2 3.4 3.4 5.8 5 3 1.9 4.5 2.8 6.1 4.4 1.6 1.8 2.6 5 1.8 7.7-0.6 2.1-2.4 3.3-4.3 4-1.9 0.7-3.6 1-5.6 1.1-3 0.2-4.4-0.2-7.2-1-3.7-1-7-3.7-8.8-6.9-1.7-3-3.9-5.4-7.2-6.9z"/>
							<path id="&lt;Path&gt;" class="s16" d="m163 798c-2.8-1.2-4.4-1.7-6-3.8-0.4-5.1 1.1-6.5 1-9.3-0.4-5.5 0.4-5.1 1.1-4.8 0 0.6-0.1 2.1-0.1 2.1 0.3 0.7 1.3 2.2 1.9 2.6 0.8 0.5 1.8 0.6 2.7 0.5 0.4-0.1 0.7-0.2 1.1-0.4 0.3-0.2 0.5-0.6 0.7-1 0.6-1 1.2-2.1 2.2-2.9 2.2-1.6 4.5-1.9 7.2-1.5 0.3 0 0.6 0.1 0.9 0.3 0.6 0.4 0.5 1.2 0.7 1.9 0.6 3 3.4 6.4 6 8.9 2 2 3.4 3.4 5.8 5 3 1.9 4.5 2.8 6.1 4.4 1.6 1.8 2.6 5 1.8 7.7-0.6 2.1-2.4 3.3-4.3 4-1.9 0.7-3.6 1-5.6 1.1-3 0.2-4.4-0.2-7.2-1-3.7-1-7-3.7-8.8-6.9-1.7-3-3.9-5.4-7.2-6.9z"/>
							<path id="&lt;Path&gt;" class="s0" d="m170.1 788.4c1.3-1.1 4.5-3.2 8.1-2.7 0 0 1.5 0.4 1.3 1.7 0 0-4.4-0.6-8.7 2.9-0.5 0.4-1 0.5-1.4-0.1-0.5-0.6 0.2-1.4 0.7-1.8z"/>
							<path id="&lt;Path&gt;" class="s0" d="m172.5 792.1c1.1-0.8 4.2-3.2 8.6-2.8 0 0 1.8 0.4 1.8 1.8 0 0-4-1.1-9.2 2.8-0.6 0.5-1.4 0.4-1.7-0.4q0 0 0 0c-0.2-0.5 0-1 0.5-1.4z"/>
							<path id="&lt;Path&gt;" class="s0" d="m175.6 797.5c-0.4-0.5-0.2-1.2 0.2-1.6 1.3-1.1 4.8-3.5 8.6-3.2 0 0 2.1 0.6 2.4 1.9 0 0-5.3-0.5-9.4 3.1-0.5 0.5-1.4 0.4-1.8-0.2q0 0 0 0z"/>
							<path id="&lt;Path&gt;" class="s17" d="m178.1 802.5c-3.2 3.8-2.4 7.7-2.4 7.9 1 0.6 2.1 1.1 3.3 1.4 2.8 0.8 4.2 1.2 7.2 1 2-0.1 3.7-0.4 5.6-1.1 1.9-0.7 4.5-2 5.1-4.2 0.8-2.6-0.5-6.3-2.1-8-0.8-0.8-1.7-1.5-2.9-1.9q0 0 0 0c-3.9-1.2-10.4 1.1-13.8 4.9z"/>
						</g>
					</g>
					<g id="&lt;Group&gt;">
						<path id="&lt;Path&gt;" class="s14" d="m210.1 777.2c-0.8 0.2-0.4 2.6 0 3.4 0.3 0.7 2.1 2.4 4.2 3.1 2 0.7 5.5 2.5 6.6 5 1.1 2.5 2.3 5.7 7.6 8.2 5.4 2.4 11 2.8 15.3 1.5 4.4-1.3 5.7-3.4 6-4.5 0.2-1.1 0-4.5 0-4.5z"/>
						<g id="&lt;Group&gt;">
							<path id="&lt;Path&gt;" class="s2" d="m216.1 781.9c-2.8-1.2-4.3-1.8-5.9-3.9-0.5-5.1 1.1-6.5 0.9-9.3-0.3-5.5 0.4-5.1 1.1-4.8 0 0.6 0 2.1 0 2.1 0.2 0.7 1.2 2.3 1.8 2.6 0.8 0.5 1.8 0.6 2.7 0.5 0.4-0.1 0.8-0.2 1.1-0.4 0.3-0.2 0.5-0.6 0.7-1 0.6-1 1.3-2.1 2.2-2.8 2.2-1.7 4.6-2 7.3-1.6 0.3 0.1 0.6 0.1 0.8 0.3 0.6 0.4 0.5 1.2 0.7 2 0.6 3 3.4 6.3 6 8.9 2.1 2 3.4 3.3 5.8 4.9 3.1 2 4.6 2.8 6.1 4.4 1.6 1.8 2.6 5 1.9 7.7-0.6 2.1-2.5 3.3-4.3 4-1.9 0.7-3.7 1.1-5.7 1.2-2.9 0.1-4.4-0.2-7.2-1.1-3.6-1-7-3.7-8.8-6.9-1.6-3-3.8-5.4-7.2-6.8z"/>
							<path id="&lt;Path&gt;" class="s16" d="m216.1 781.9c-2.8-1.2-4.3-1.8-5.9-3.9-0.5-5.1 1.1-6.5 0.9-9.3-0.3-5.5 0.4-5.1 1.1-4.8 0 0.6 0 2.1 0 2.1 0.2 0.7 1.2 2.3 1.8 2.6 0.8 0.5 1.8 0.6 2.7 0.5 0.4-0.1 0.8-0.2 1.1-0.4 0.3-0.2 0.5-0.6 0.7-1 0.6-1 1.3-2.1 2.2-2.8 2.2-1.7 4.6-2 7.3-1.6 0.3 0.1 0.6 0.1 0.8 0.3 0.6 0.4 0.5 1.2 0.7 2 0.6 3 3.4 6.3 6 8.9 2.1 2 3.4 3.3 5.8 4.9 3.1 2 4.6 2.8 6.1 4.4 1.6 1.8 2.6 5 1.9 7.7-0.6 2.1-2.5 3.3-4.3 4-1.9 0.7-3.7 1.1-5.7 1.2-2.9 0.1-4.4-0.2-7.2-1.1-3.6-1-7-3.7-8.8-6.9-1.6-3-3.8-5.4-7.2-6.8z"/>
							<path id="&lt;Path&gt;" class="s0" d="m223.2 772.2c1.3-1.1 4.5-3.2 8.1-2.7 0 0 1.5 0.4 1.3 1.8 0 0-4.4-0.7-8.7 2.8-0.5 0.4-1 0.5-1.4-0.1-0.5-0.6 0.2-1.4 0.7-1.8z"/>
							<path id="&lt;Path&gt;" class="s0" d="m225.6 776c1.2-0.9 4.2-3.3 8.6-2.9 0 0 1.8 0.4 1.8 1.8 0 0-4-1-9.1 2.8-0.7 0.5-1.5 0.4-1.8-0.4q0 0 0 0c-0.2-0.5 0.1-1 0.5-1.3z"/>
							<path id="&lt;Path&gt;" class="s0" d="m228.7 781.3c-0.4-0.5-0.2-1.2 0.3-1.6 1.2-1.1 4.7-3.5 8.5-3.2 0 0 2.1 0.6 2.4 1.9 0 0-5.3-0.5-9.4 3.1-0.5 0.5-1.4 0.4-1.8-0.2q0 0 0 0z"/>
							<path id="&lt;Path&gt;" class="s17" d="m231.3 786.3c-3.3 3.8-2.5 7.8-2.5 7.9 1.1 0.6 2.2 1.1 3.3 1.4 2.8 0.9 4.3 1.2 7.2 1.1 2-0.1 3.8-0.5 5.7-1.2 1.8-0.7 4.4-2 5-4.2 0.8-2.6-0.5-6.2-2.1-8-0.7-0.8-1.7-1.5-2.9-1.9-3.9-1.2-10.4 1.1-13.7 4.9z"/>
						</g>
					</g>
				</g>
				<g id="&lt;Group&gt;">
					<g id="&lt;Group&gt;">
						<g id="&lt;Group&gt;">
							<path id="&lt;Path&gt;" class="s12" d="m235.7 560l17 20.6 26.1-17.2 6.8 14.2c0 0-13.5 12.2-24.7 19.5-4 2.5-12.6 9.5-18.1 4-5.2-5.2-11.7-14.4-11.7-14.4z"/>
							<path id="&lt;Path&gt;" class="s19" d="m278.8 563.4l-13.6 8.9c0 0 1.1 10.9 12.3 12.3 4.7-3.9 8.1-7 8.1-7z"/>
							<g id="&lt;Group&gt;">
								<g id="&lt;Group&gt;">
									<path id="&lt;Path&gt;" class="s2" d="m210.9 543.7c10.9-0.7 19.8 7.3 25.8 15 6.6 8.4 15.6 21.2 15.6 21.2 0 0-1.7 12.2-13.5 18.2l-23.6-27.3z"/>
								</g>
							</g>
							<path id="&lt;Path&gt;" class="s21" d="m172.5 545.7c-3.5 5.9-3.6 7.1-4.4 13.4-0.4 3-4.5 9.9-4.5 13.8l3.2 26.1-1.2 32.7c9.4 10.3 47.6 13.6 68.3-1.5 0 0-2.2-53.2-3.8-63.6-2.7-18-12.4-23.6-21-22.9l-22.9 1.1z"/>
							<g id="&lt;Group&gt;">
								<path id="&lt;Path&gt;" class="s12" d="m170.2 548.8c-3.8-1.3-8.5 1.9-15 10-5.8 7.1-12.2 15.4-12.2 15.4 0 0-11-23.5-11.1-27 0-3.5 0.7-3.7 1-8.2 0.3-4.5-0.1-7.4 0.8-9.4 0.9-1.9-2.8-2-4.1 0.4-1.3 2.4-1.2 5.7-2.3 5.2-1.1-0.5-2.4-7.4-2-12.5 0.5-5.1-2.4-6.2-3.3-4.5-0.9 1.7-1.2 2.8-1.2 2.8 0 0-4.1-1-6.4 2.1-2.4 3.1-4.3 7.6-3.7 15 0.6 7.4 4.9 12.6 5.7 15.9 0.8 3.3 8 31.2 16.2 44.5 3.8 6.1 9.9 5.6 14.1 1.4 5.7-5.7 19.6-19.9 19.6-19.9 8.2-12 10.3-24.9 3.9-31.2z"/>
								<path id="&lt;Path&gt;" class="s2" d="m173.3 545.7c-1.2 0.1-7.9 0.1-12.1 4.4-4.5 4.5-10.1 11.5-18.1 23 0 0 9.5 10.6 8.2 23.9l17.9-17.2c0 0 10.1-14.1 4.1-34.1z"/>
							</g>
						</g>
						<g id="&lt;Group&gt;">
							<g id="&lt;Group&gt;">
								<path id="&lt;Path&gt;" class="s8" d="m232.1 503.7c0 10.8-8.7 19.5-19.4 19.5-10.8 0-19.5-8.7-19.5-19.5 0-10.7 8.7-19.4 19.5-19.4 10.7 0 19.4 8.7 19.4 19.4z"/>
								<path id="&lt;Path&gt;" class="s8" d="m178.2 515.9c0 0 3 14.3 4.2 16.6 1.2 2.4 3.8 3.1 3.8 3.1l-0.3-10.1z"/>
								<path id="&lt;Path&gt;" class="s8" d="m182 495.5c0 0-3.3-0.5-5.8 2.1-2.5 2.5-1.1 10.5 2 18.3l5.7 0.7z"/>
								<path id="&lt;Path&gt;" class="s12" d="m185.6 516.6c-1.1 0.7-2.8-1.5-4.2-3-1.4-1.5-6-3.5-8.3 1.4-2.4 4.9 2 11.4 5.6 12.6 6.3 1.9 7.2-2.1 7.2-2.1l0.5 22.6c0 0 4.1 10 15.2 11.5 11.1 1.5 11-7.8 7.4-12.2v-6.4c0 0 4 0.3 8.2-0.8 3.5-1 6.2-3.1 8.5-8.5 3.1-7.2 3.5-15.1 1.2-29.9-2.6-17.2-23.8-17.7-34.6-10.9-10.8 6.8-6.7 25.7-6.7 25.7z"/>
								<path id="&lt;Path&gt;" class="s8" d="m185.6 518.5c-0.6 0-2.8-3.6-4.2-4.9-2-1.8 0.6-18.1 0.6-18.1 0 0-1.9-4 1.9-8.2 2.7-3 7.2-3.3 14.9-4.5 4.1-0.7 10.2-1.8 14.3-2.6 4.8-0.9 8.8-1.8 12.2 1.2 2.7 2.3 3.8 6.3 2.4 9.6-0.3 0.7-0.8 1.4-1.4 2-0.9 1.1-2 1.9-3.4 2.4 0 0-2.1 1.9-9.5 2.8-7.3 0.9-18.7-0.2-20.3-0.4-2.1-0.3-2.6 1.7-3.7 7.4-1 4.9-1.9 13.3-3.8 13.3z"/>
								<path id="&lt;Path&gt;" class="s8" d="m182 496.8l-6.9-3.7c0.9-2 3.3-2.8 5.2-1.8 1.9 1.1 2.7 3.5 1.7 5.5z"/>
								<path id="&lt;Path&gt;" class="s19" d="m209 541c0 0-11.1-1.1-16.1-4.3-2.3-1.5-4.4-3.5-5-5 0 0 0.6 3.2 2.9 5.8 4.9 5.9 18.2 6.2 18.2 6.2z"/>
							</g>
							<g id="&lt;Group&gt;">
								<path id="&lt;Path&gt;" class="s8" d="m205.1 514.1c0 1.3-1.1 2.4-2.4 2.4-1.2 0-2.3-1.1-2.3-2.4 0-1.4 1.1-2.4 2.3-2.4 1.3 0 2.4 1 2.4 2.4z"/>
								<path id="&lt;Path&gt;" class="s8" d="m202 507.1l-4.9 2.7c-0.7-1.4-0.2-3.2 1.2-3.9 1.3-0.8 3-0.2 3.7 1.2z"/>
								<path id="&lt;Path&gt;" class="s19" d="m205.1 527.6l6.3 2.4c-0.6 1.8-2.6 2.8-4.3 2.1-1.7-0.7-2.7-2.7-2-4.5z"/>
								<path id="&lt;Path&gt;" class="s8" d="m224.9 508.4l-4.5-3.5c0.9-1.3 2.7-1.6 3.9-0.6 1.3 1 1.5 2.8 0.6 4.1z"/>
								<path id="&lt;Path&gt;" class="s8" d="m223.7 513c0 1.3-1 2.4-2.3 2.4-1.3 0-2.3-1.1-2.3-2.4 0-1.3 1-2.4 2.3-2.4 1.3 0 2.3 1.1 2.3 2.4z"/>
								<path id="&lt;Path&gt;" class="s19" d="m211.4 511.5l0.7 12.4 6.5-2.2z"/>
							</g>
						</g>
					</g>
				</g>
				<g id="&lt;Group&gt;">
					<path id="&lt;Path&gt;" class="s12" d="m258.3 537.7c0.8 6.5 2.4 16.2 4.3 21.8 5.9 16.9 10.9 22.4 18.5 23 12.3 0.8 12.4-3.8 6.9-11.7-4.1-5.8-5.5-11.3-5.5-11.3 2.4 1.8 4.3 3.2 5.9 3.8 3 1.2 5-0.4 5.5-1.5 0.4-0.8-1.7-1.6-4.1-4.5-3-3.7-4.5-6.6-8.6-9.6-1.6-1.1-2-3.2-2.5-5.1-0.6-2.4-1.1-41.8 1.2-49.9l10.5-37.8c8.6-5.9 14.4-34.5 1.3-40.7-16.5 1.8-19.9 9.2-33.9 68-2.1 8.8-2.1 33.2 0.5 55.5z"/>
					<path id="&lt;Path&gt;" class="s19" d="m282.5 559.5c-6.5-0.1-10.1 5.8-6 10.6 4.1 4.8 13.5 3.9 13.5 3.9l0.8 1.7c1.4-0.7 3.2-2.9 1.9-6.6-1.6-4.3-4.4-9.5-10.2-9.6z"/>
				</g>
			</g>
		</g>
	</g>
	<g id="Boy with wheelchair">
		<g id="Character 1 2 ">
			<g id="&lt;Group&gt;">
				<path id="&lt;Compound Path&gt;" fill-rule="evenodd" class="s7" d="m680.1 617.4l3.3-1.8c7.9-4.6 15.3-6.8 22-6.9q0.3 0 0.6 0 1.7 0 3.4 0.2c10.5 1.1 19.7 6.5 25.8 14.4q0.2 0.2 0.4 0.5 0.3 0.4 0.6 0.8 0.2 0.3 0.4 0.5 0.2 0.4 0.5 0.7 0.4 0.7 0.8 1.4 0.2 0.3 0.3 0.5 0.2 0.4 0.4 0.7 0 0.1 0 0.1c2.9 5.4 4.6 11.5 4.6 18v1.5q0 1.1 0 2.1v3.7c0 32.2-22.6 71.3-50.4 87.3l-3.2 1.9c-7.9 4.6-15.4 6.8-22 6.9q-0.1 0-0.2 0-0.2 0-0.3 0-0.7 0-1.3-0.1-0.2 0-0.4 0-0.6 0-1.1-0.1-0.3 0-0.6 0-0.1 0-0.3-0.1c-10.8-1.1-20.3-6.9-26.4-15.3q-0.4-0.5-0.7-1-0.1-0.1-0.1-0.2-0.5-0.6-0.9-1.3c-3.5-5.7-5.6-12.5-5.6-19.7v-7.4c0-32.1 22.6-71.2 50.4-87.3zm11.1 113.7c23.5-13.5 42.6-46.5 42.6-73.6 0-27.2-19.1-38.2-42.6-24.6-23.5 13.6-42.6 46.5-42.6 73.7 0 27.1 19.1 38.1 42.6 24.5z"/>
				<path id="&lt;Compound Path&gt;" fill-rule="evenodd" class="s14" d="m689.6 622.9l3.2-1.9c13.8-7.9 26.3-8.7 35.4-3.7q0.3 0.2 0.7 0.5 0 0 0.1 0.1 0.4 0.2 0.8 0.5 0.4 0.3 0.8 0.5 0.8 0.6 1.6 1.3 0.3 0.3 0.7 0.6 0.7 0.7 1.4 1.4 0.3 0.4 0.6 0.8 0.4 0.4 0.7 0.8 0.3 0.4 0.6 0.8 0.2 0.3 0.4 0.5 0.2 0.4 0.5 0.7 0.4 0.7 0.8 1.4 0.2 0.3 0.3 0.5 0.2 0.4 0.4 0.7 0.2 0.4 0.3 0.7 0.7 1.3 1.2 2.7 0.3 0.7 0.5 1.5 0.1 0 0.1 0 0.4 1.4 0.8 2.8 0.2 0.8 0.4 1.6 0.2 0.9 0.4 1.9 0.1 0.4 0.1 0.9 0.2 0.8 0.3 1.5 0.1 0.9 0.2 1.8 0 0.2 0 0.3 0.1 0.8 0.2 1.5 0 0.4 0 0.7 0 0.8 0.1 1.7 0 1.1 0 2.1v3.7c0 32.2-22.6 71.3-50.4 87.3l-3.2 1.9c-8.1 4.7-15.7 6.9-22.5 6.9q-0.7 0-1.3-0.1-0.2 0-0.4 0-0.6 0-1.1-0.1-0.3 0-0.6 0-0.6-0.1-1.1-0.2-0.5 0-1-0.1-0.5-0.1-0.9-0.2-0.9-0.3-1.8-0.5-0.4-0.1-0.7-0.3-0.4-0.1-0.8-0.3-0.4-0.1-0.7-0.2-0.7-0.3-1.4-0.7-0.4-0.2-0.7-0.3-0.1-0.1-0.2-0.2-0.2 0-0.3-0.1-0.2-0.1-0.4-0.3c-9-5.3-14.5-16.5-14.5-32.4v-3.7c0-32.2 22.6-71.2 50.4-87.3zm1.6 108.2c23.5-13.5 42.6-46.5 42.6-73.6 0-27.2-19.1-38.2-42.6-24.6-23.5 13.6-42.6 46.5-42.6 73.7 0 27.1 19.1 38.1 42.6 24.5z"/>
				<g id="&lt;Group&gt;">
					<path id="&lt;Path&gt;" class="s2" d="m659.6 724.2c6.7 8 18.3 9.1 31.6 1.5 20.9-12.1 37.8-41.4 37.8-65.5 0-10.8-3.4-18.7-9-23.1 3.9 4.6 6.2 11.5 6.2 20.4 0 24.1-16.9 53.4-37.8 65.5-11.6 6.6-21.9 6.6-28.8 1.2z"/>
					<path id="&lt;Path&gt;" class="s22" d="m659.6 724.2c6.7 8 18.3 9.1 31.6 1.5 20.9-12.1 37.8-41.4 37.8-65.5 0-10.8-3.4-18.7-9-23.1 3.9 4.6 6.2 11.5 6.2 20.4 0 24.1-16.9 53.4-37.8 65.5-11.6 6.6-21.9 6.6-28.8 1.2z"/>
				</g>
				<path id="&lt;Compound Path&gt;" fill-rule="evenodd" class="s2" d="m691.2 632.9c23.5-13.6 42.6-2.6 42.6 24.5 0 27.2-19.1 60.2-42.6 73.7-23.5 13.6-42.5 2.6-42.5-24.5 0-27.2 19-60.1 42.5-73.7zm0 92.8c20.9-12.1 37.8-41.4 37.8-65.5 0-24.1-16.9-33.9-37.8-21.9-20.9 12.1-37.8 41.4-37.8 65.6 0 24.1 16.9 33.8 37.8 21.8z"/>
				<path id="&lt;Path&gt;" class="s23" d="m654.7 691.9q0.1-0.7 0.2-1.3l33-8.9 0.7-1.1-24.2-13.9q0.3-0.5 0.6-1l24.2 13.9 0.6-1.2-8.8-32.6q0.5-0.4 1-0.9l8.6 32.1 1.2-1.3 8.4-41.3q0.7-0.2 1.3-0.4l-8.3 40.8 1.3-0.2 22.7-39.3q0.5 0.3 1 0.6l-22.7 39.3 0.5 1.2 31.4-27.8q0.2 0.6 0.4 1.2l-31.9 28.3-0.6 1.6 32.7-8.7q-0.1 0.6-0.3 1.3l-33.2 8.9-0.7 1.1 24.7 14.2q-0.3 0.5-0.6 1l-24.7-14.2-0.6 1.2 9 33.5q-0.5 0.4-1 0.9l-8.8-33-1.2 1.3-8.7 42.5q-0.6 0.2-1.2 0.3l8.5-41.9-1.3 0.2-23.2 40.2q-0.5-0.3-1-0.6l23.2-40.2-0.5-1.2-31.7 28.1q-0.2-0.6-0.3-1.3l32.1-28.5 0.6-1.6z"/>
				<g id="&lt;Group&gt;">
					<path id="&lt;Compound Path&gt;" fill-rule="evenodd" class="s1" d="m689 664.4c4-2.3 7.7-2.5 10.2-0.8 0.6 0.3 1.2 0.6 1.9 1q0.3 0.2 0.6 0.3 0 0.1 0.1 0.1 0 0 0 0 0.4 0.3 0.7 0.6 0.1 0.1 0.1 0.2 0.3 0.2 0.6 0.6 0.1 0.1 0.2 0.2 0.2 0.3 0.4 0.7 0.1 0.2 0.2 0.4 0.2 0.3 0.4 0.6 0.1 0.3 0.2 0.5 0.1 0.4 0.2 0.7 0.1 0.3 0.2 0.7 0.1 0.3 0.1 0.6 0.1 0.5 0.1 0.9 0.1 0.3 0.1 0.6 0.1 0.7 0.1 1.5c0 9.1-6.4 20.1-14.2 24.6q-0.7 0.4-1.4 0.7-0.5 0.2-0.9 0.4-0.3 0.1-0.6 0.2-0.3 0.1-0.5 0.2-0.4 0.1-0.8 0.2-0.2 0-0.4 0-0.5 0.1-1 0.2 0 0 0 0c-1.8 0.1-3.4-0.3-4.7-1.1-0.7-0.4-1.3-0.7-2-1.2-2.5-1.5-4.1-4.6-4.1-9 0-9.1 6.4-20.1 14.2-24.6zm4.1 27.3c2.4-1.9 5.8-7.7 7.1-10.9-0.7 0.5-1.5 1.1-2.4 1.5-3.7 1.9-3.6-0.6-5.1 1.2-1.5 1.7-1.2 6.1-0.1 8.4q0.2-0.1 0.5-0.2zm-7.2-16.8q0.3 0.1 0.6 0.2c0.4 0.2 2 1.2 2.2 1.3 0.5 0.3 0.8 0.7 1 1 1.9-1.8 4-7.8 3.8-10.6-3.2 1.1-8.4 5.5-9.3 7.2q-0.1 0.3-0.1 0.5c0.6 0 1.2 0.1 1.8 0.4zm10.7-1.9c-1.2 4.3-2.9 4.9-3.1 6.3 2.8-0.4 7.4-3.1 7.7-5.8 0.3-2.5-1.1-5.5-2.5-7.2-1.2 0.5-1.1 3.2-2.1 6.7zm-8 22.5c1.5-1.4-0.1-2.7-0.9-5.5-0.5-1.7-0.2-3.1 0-4.1-2.9 2.3-7.2 8.4-6.1 10.1q0.1 0.1 0.1 0.2c2.5 0.7 5.9 0.2 6.9-0.7zm-6.9-9.4c3.1-4.1 4.3-2.7 5-4.9 0.4-1-0.1-2.1-1-2.9-1.6-0.5-3.5-0.2-4.4 1.5-1.5 2.7-2.4 7.5-2.4 10.6 0.7-1.1 1.6-2.7 2.8-4.3z"/>
					<path id="&lt;Compound Path&gt;" fill-rule="evenodd" class="s22" d="m689 664.4c4-2.3 7.7-2.5 10.2-0.8 0.6 0.3 1.2 0.6 1.9 1q0.3 0.2 0.6 0.3 0 0.1 0.1 0.1 0 0 0 0 0.4 0.3 0.7 0.6 0.1 0.1 0.1 0.2 0.3 0.2 0.6 0.6 0.1 0.1 0.2 0.2 0.2 0.3 0.4 0.7 0.1 0.2 0.2 0.4 0.2 0.3 0.4 0.6 0.1 0.3 0.2 0.5 0.1 0.4 0.2 0.7 0.1 0.3 0.2 0.7 0.1 0.3 0.1 0.6 0.1 0.5 0.1 0.9 0.1 0.3 0.1 0.6 0.1 0.7 0.1 1.5c0 9.1-6.4 20.1-14.2 24.6q-0.7 0.4-1.4 0.7-0.5 0.2-0.9 0.4-0.3 0.1-0.6 0.2-0.3 0.1-0.5 0.2-0.4 0.1-0.8 0.2-0.2 0-0.4 0-0.5 0.1-1 0.2 0 0 0 0c-1.8 0.1-3.4-0.3-4.7-1.1-0.7-0.4-1.3-0.7-2-1.2-2.5-1.5-4.1-4.6-4.1-9 0-9.1 6.4-20.1 14.2-24.6zm4.1 27.3c2.4-1.9 5.8-7.7 7.1-10.9-0.7 0.5-1.5 1.1-2.4 1.5-3.7 1.9-3.6-0.6-5.1 1.2-1.5 1.7-1.2 6.1-0.1 8.4q0.2-0.1 0.5-0.2zm-7.2-16.8q0.3 0.1 0.6 0.2c0.4 0.2 2 1.2 2.2 1.3 0.5 0.3 0.8 0.7 1 1 1.9-1.8 4-7.8 3.8-10.6-3.2 1.1-8.4 5.5-9.3 7.2q-0.1 0.3-0.1 0.5c0.6 0 1.2 0.1 1.8 0.4zm10.7-1.9c-1.2 4.3-2.9 4.9-3.1 6.3 2.8-0.4 7.4-3.1 7.7-5.8 0.3-2.5-1.1-5.5-2.5-7.2-1.2 0.5-1.1 3.2-2.1 6.7zm-8 22.5c1.5-1.4-0.1-2.7-0.9-5.5-0.5-1.7-0.2-3.1 0-4.1-2.9 2.3-7.2 8.4-6.1 10.1q0.1 0.1 0.1 0.2c2.5 0.7 5.9 0.2 6.9-0.7zm-6.9-9.4c3.1-4.1 4.3-2.7 5-4.9 0.4-1-0.1-2.1-1-2.9-1.6-0.5-3.5-0.2-4.4 1.5-1.5 2.7-2.4 7.5-2.4 10.6 0.7-1.1 1.6-2.7 2.8-4.3z"/>
					<path id="&lt;Compound Path&gt;" fill-rule="evenodd" class="s1" d="m691.2 665.6c7.8-4.5 14.2-0.8 14.2 8.2 0 9.1-6.4 20.1-14.2 24.6-7.8 4.5-14.2 0.8-14.2-8.2 0-9 6.4-20 14.2-24.6zm3.5 1c-2.8 0-9.5 5.5-10.5 7.4-0.9 2 1.6 1.3 3.8 2.1 2.9 1 1.5 3.8 3.2 3.1 2.5-1 6.3-12.6 3.5-12.6zm4.2-0.4c-1.4 0.2-1.2 3-2.3 6.8-1.3 4.7-3.3 5-3 6.8 0.4 2.6 9.3-1.3 9.7-5.1 0.5-3.8-2.9-8.8-4.4-8.5zm-3.7 26.7c3.1-2.4 7.8-10.9 7.8-12.7 0-1.8-2.3 0.6-5.2 2.1-3.7 1.9-3.6-0.6-5.1 1.2-2.2 2.6-0.5 11.8 2.5 9.4zm-13.6 3.1c1.5 2.4 7.7 2 9.2 0.7 1.5-1.4-0.2-2.7-0.9-5.5-1-3.5 1.1-5.4-0.1-6.1-1.8-1-9.7 8.6-8.2 10.9zm2.3-8.6c3-4.1 4.3-2.7 5-4.9 1.1-3.2-5.5-6.5-7.6-2.7-2.2 3.8-3 12.2-2.1 13.1 0.9 1 2.2-2.3 4.7-5.5z"/>
				</g>
				<path id="&lt;Path&gt;" class="s7" d="m691.2 687c-2.4 1.4-4.3 0.3-4.3-2.5 0-2.7 1.9-6.1 4.3-7.5 2.4-1.4 4.3-0.3 4.3 2.5 0 2.8-1.9 6.1-4.3 7.5z"/>
			</g>
			<g id="&lt;Group&gt;">
				<path id="&lt;Path&gt;" class="s21" d="m619.6 711.7c-0.5-1-1.8-1.3-2.8-0.7l-1.7 1c-7.7 4.4-13.7 11-17.5 18.9l-5.3 11.3q-0.1 0-0.1 0l-16.7 35.3c-0.5 1 0 2.2 1 2.7q0.4 0.2 0.9 0.2c0.8 0 1.5-0.4 1.9-1.2l16.4-34.6 20.6-11.7c1-0.6 1.4-1.9 0.8-2.9-0.5-1-1.8-1.3-2.8-0.7l-15.5 8.8 2.5-5.4c3.4-7.2 8.9-13.1 15.8-17.1l1.8-1c1-0.6 1.3-1.9 0.7-2.9z"/>
				<path id="&lt;Path&gt;" class="s23" d="m616.1 731.6c5.8 11.1 3.9 25.2 3.7 30-0.2 4.8 2.2 3.8 3.6 0 1.3-3.9 4.9-19.7-1.2-33.5z"/>
				<g id="&lt;Group&gt;">
					<path id="&lt;Path&gt;" class="s7" d="m604.9 766c0-8.9 6.2-19.7 13.9-24.1 4-2.4 7.7-2.5 10.2-0.8l6 3.4-20 34-5.9-3.4c-2.6-1.4-4.2-4.6-4.2-9.1z"/>
					<path id="&lt;Path&gt;" class="s14" d="m625.1 745.5c-7.7 4.4-13.9 15.2-13.9 24.1 0 8.9 6.2 12.5 13.9 8.1 7.7-4.5 13.9-15.3 13.9-24.2 0-8.9-6.2-12.5-13.9-8z"/>
					<path id="&lt;Path&gt;" class="s8" d="m625.1 755.9c-2.7 1.6-4.9 5.4-4.9 8.5 0 3.1 2.2 4.4 4.9 2.8 2.7-1.5 4.9-5.3 4.9-8.5 0-3.1-2.2-4.4-4.9-2.8z"/>
				</g>
				<path id="&lt;Path&gt;" class="s21" d="m620.2 731.2c5.8 11 3.9 25.1 3.7 29.9-0.2 4.8 2.2 3.9 3.6 0 1.4-3.8 5-19.6-1.2-33.4z"/>
				<path id="&lt;Path&gt;" class="s14" d="m614 737.6l49.8-29.4v-6.2l-44.8 26.6z"/>
			</g>
			<g id="&lt;Group&gt;">
				<path id="&lt;Path&gt;" class="s2" d="m645.1 839.2l28-16.1-89.5-51.7-28 16.1z"/>
				<path id="&lt;Path&gt;" class="s2" d="m673.1 823.1v6.4l-28 16.2v-6.5z"/>
				<path id="&lt;Path&gt;" class="s10" d="m673.1 823.1v6.4l-28 16.2v-6.5z"/>
				<path id="&lt;Path&gt;" class="s2" d="m555.6 787.5v6.5l89.5 51.7v-6.5z"/>
				<path id="&lt;Path&gt;" class="s5" d="m555.6 787.5v6.5l89.5 51.7v-6.5z"/>
			</g>
			<path id="&lt;Path&gt;" class="s21" d="m710.1 762.9c-0.5-1-1.8-1.3-2.8-0.7l-1.7 1c-7.7 4.4-13.7 10.9-17.5 18.9l-5.3 11.3q0 0 0 0l-16.8 35.3c-0.5 1 0 2.2 1 2.7q0.4 0.2 0.9 0.2c0.8 0 1.5-0.4 1.9-1.2l16.4-34.6 20.6-11.8c1-0.5 1.4-1.8 0.8-2.8-0.5-1-1.8-1.3-2.8-0.7l-15.5 8.8 2.5-5.4c3.4-7.2 8.9-13.1 15.8-17.1l1.8-1.1c1-0.5 1.3-1.8 0.7-2.8z"/>
			<path id="&lt;Path&gt;" class="s23" d="m711.2 786.2c5.8 11.1 3.9 25.2 3.7 30-0.2 4.8 2.2 3.8 3.6 0 1.3-3.9 4.9-19.7-1.2-33.5z"/>
			<g id="&lt;Group&gt;">
				<path id="&lt;Path&gt;" class="s7" d="m700 820.6c0-8.9 6.2-19.7 13.9-24.1 4-2.4 7.7-2.5 10.2-0.8l6 3.4-20 34-5.9-3.4c-2.6-1.4-4.2-4.6-4.2-9.1z"/>
				<path id="&lt;Path&gt;" class="s14" d="m720.2 800.1c-7.7 4.4-13.9 15.2-13.9 24.1 0 8.9 6.2 12.5 13.9 8.1 7.7-4.5 13.9-15.3 13.9-24.2 0-8.9-6.2-12.5-13.9-8z"/>
				<path id="&lt;Path&gt;" class="s8" d="m720.2 810.5c-2.7 1.6-4.9 5.4-4.9 8.5 0 3.1 2.2 4.4 4.9 2.8 2.7-1.5 4.9-5.3 4.9-8.5 0-3.1-2.2-4.4-4.9-2.8z"/>
			</g>
			<path id="&lt;Path&gt;" class="s21" d="m715.3 785.8c5.8 11 4 25.1 3.7 29.9-0.2 4.8 2.2 3.9 3.6 0 1.4-3.8 5-19.6-1.2-33.4z"/>
			<g id="&lt;Group&gt;">
				<g id="&lt;Group&gt;">
					<path id="&lt;Path&gt;" class="s7" d="m810.9 592.3l-7.2-12.5 30.5-17.6c1-0.5 2.3-0.5 3.7 0.4 2.8 1.6 5.1 5.5 5.1 8.8 0 1.6-0.6 2.7-1.4 3.2l-0.1 0.1q0 0 0 0z"/>
					<path id="&lt;Path&gt;" class="s14" d="m812.4 589c0 3.3-2.3 4.6-5.1 3-2.8-1.7-5.1-5.6-5.1-8.9 0-3.2 2.3-4.5 5.1-2.9 2.8 1.6 5.1 5.6 5.1 8.8z"/>
				</g>
				<g id="&lt;Group&gt;">
					<path id="&lt;Path&gt;" class="s1" d="m807.1 583.1c-0.6-0.3-1.2-0.4-1.6-0.3l-0.4 0.3-21.3 12.3q0.3 0.1 0.5 0.3 0.7 0.5 1.4 1c1.1 0.8 2.1 1.5 3.1 2.4q0.4 0.3 0.8 0.8l18.8-10.9 0.7-0.4c0.3-0.3 0.4-0.7 0.4-1.3 0-1.5-1.1-3.4-2.4-4.2z"/>
				</g>
			</g>
			<g id="&lt;Group&gt;">
				<g id="&lt;Group&gt;">
					<path id="&lt;Path&gt;" class="s7" d="m740.5 551.1l-7.3-12.5 30.6-17.6c0.9-0.6 2.2-0.5 3.6 0.3 2.8 1.6 5.1 5.6 5.1 8.8 0 1.6-0.5 2.7-1.4 3.3h-0.1q0 0 0 0z"/>
					<path id="&lt;Path&gt;" class="s14" d="m741.9 547.8c0 3.2-2.2 4.6-5 2.9-2.9-1.6-5.1-5.5-5.1-8.8 0-3.2 2.2-4.6 5.1-2.9 2.8 1.6 5 5.5 5 8.8z"/>
				</g>
				<g id="&lt;Group&gt;">
					<path id="&lt;Path&gt;" class="s1" d="m736.6 541.8c-0.6-0.3-1.1-0.4-1.5-0.2l-0.4 0.2-21.3 12.3q0.2 0.2 0.4 0.4 0.7 0.5 1.4 1c1.1 0.7 2.2 1.5 3.1 2.3q0.5 0.4 0.9 0.8l18.7-10.8 0.8-0.4c0.2-0.3 0.3-0.8 0.3-1.3 0-1.6-1.1-3.5-2.4-4.3z"/>
				</g>
			</g>
			<g id="&lt;Group&gt;">
				<g id="&lt;Group&gt;">
					<path id="&lt;Path&gt;" class="s14" d="m709.5 569.6l22.2 12.8-100.9 47.8c-6 3.8-10.2 10-11.4 17.1l-13.8 89.4c-0.2 1.1-1.3 1.6-2.3 1.1-0.5-0.3-0.8-0.9-0.6-3l7.9-95c0.4-5.4 3.8-11.8 9.3-16.1z"/>
				</g>
				<g id="&lt;Group&gt;">
					<path id="&lt;Path&gt;" class="s2" d="m713.2 740.5l83.9-48.4c2.9-1.7 5.2-5.8 5.2-9.2v-4.9c0-3.4-2.3-7.5-5.2-9.2l-83.9-48.4c-2.9-1.7-7.6-1.7-10.6 0l-83.8 48.4c-2.9 1.7-5.3 5.8-5.3 9.2v5c0 3.4 2.4 7.5 5.3 9.2l83.8 48.3c3 1.7 7.7 1.7 10.6 0z"/>
					<path id="&lt;Path&gt;" class="s10" d="m711.7 741.2c0.5-0.2 1.1-0.4 1.5-0.7l83.9-48.4c2.9-1.7 5.2-5.8 5.2-9.2v-4.9c0-3-1.8-6.5-4.3-8.5 1.9 1.7 1.6 4-0.9 5.4l-83.5 48.2z"/>
					<path id="&lt;Path&gt;" class="s5" d="m613.5 678v5c0 3.4 2.4 7.5 5.3 9.2l83.9 48.3c2.4 1.5 6.1 1.7 9 0.7l1.9-18.1-0.4 0.2c-2.9 1.7-7.6 1.7-10.5 0l-83.9-48.4c-2.5-1.4-2.8-3.7-1-5.4-2.4 2-4.3 5.5-4.3 8.5z"/>
				</g>
				<g id="&lt;Group&gt;">
					<path id="&lt;Path&gt;" class="s2" d="m683.4 637.6l83.8 48.4c1.7 1 4 1.4 6.2 1.3q0.5-0.1 1-0.1 0.1-0.1 0.2-0.1 0.3 0 0.5-0.1 0.1 0 0.1 0 0.4-0.1 0.8-0.2 1-0.3 1.8-0.8l4.4-2.5c2.9-1.6 5.7-5.7 6.3-9l12.8-71.2q0.1-0.6 0.1-1.3 0-0.3 0-0.5-0.1-1.4-0.6-2.6c-0.6-1.6-1.6-3-2.8-4q-0.2-0.2-0.4-0.3-0.3-0.2-0.5-0.4l-83.9-48.4c-2.9-1.6-7.6-1.6-10.5 0l-4.4 2.5c-0.8 0.5-1.7 1.3-2.5 2.1q-0.2 0.2-0.4 0.5-0.9 1-1.6 2.1-0.1 0.2-0.3 0.4-0.1 0.3-0.2 0.5-0.2 0.3-0.3 0.6-0.2 0.3-0.3 0.6-0.1 0.3-0.2 0.5-0.1 0.2-0.1 0.3-0.1 0.2-0.2 0.5-0.1 0.3-0.1 0.6-0.1 0.2-0.1 0.4l-12.8 71.2c-0.6 3.3 1.3 7.4 4.2 9z"/>
					<path id="&lt;Path&gt;" class="s2" d="m786.4 611.9l-12.8 71.2c-0.6 3.3-3.4 4.6-6.4 2.9l-83.8-48.4c-2.9-1.6-4.8-5.7-4.2-9l12.8-71.2c0.6-3.3 3.4-4.6 6.3-2.9l83.8 48.3c3 1.7 4.9 5.8 4.3 9.1z"/>
					<path id="&lt;Path&gt;" class="s5" d="m786.4 611.9l-12.8 71.2c-0.6 3.3-3.4 4.6-6.4 2.9l-83.8-48.4c-2.9-1.6-4.8-5.7-4.2-9l12.8-71.2c0.6-3.3 3.4-4.6 6.3-2.9l83.8 48.3c3 1.7 4.9 5.8 4.3 9.1z"/>
					<path id="&lt;Path&gt;" class="s10" d="m769.4 686.9c1.3 0.3 2.7 0.5 4 0.4q0.5-0.1 1-0.1 0.4-0.1 0.7-0.2 0.1 0 0.1 0 0.4-0.1 0.8-0.2 1-0.3 1.8-0.8l4.4-2.5c2.9-1.6 5.7-5.7 6.3-9l12.8-71.2q0.1-0.6 0.1-1.3 0-0.3 0-0.5-0.1-1.4-0.6-2.6l-15 8.5c0.6 1.5 0.8 3.1 0.6 4.5l-12.8 71.2c-0.4 2.5-2.1 3.8-4.2 3.7q0 0 0 0.1z"/>
				</g>
			</g>
			<g id="&lt;Group&gt;">
				<path id="&lt;Path&gt;" class="s13" d="m705.2 542.2c-11.9-4.1-20.5 7-32.3 18-8.2 7.5-18.3 18.2-18.3 18.2 0 0-13.3-25.9-13.8-30.1-0.6-5 1.3-6.9 1.7-12.3 0.4-5.4-0.2-8.9 0.9-11.3 1.1-2.3-3.4-2.5-4.9 0.5-1.6 2.9-1.5 6.8-2.8 6.2-1.3-0.6-2.9-8.9-2.3-15 0.5-6.1-3-7.4-4.1-5.4-1.1 2-1.4 3.4-1.4 3.4 0 0-4.9-1.2-7.7 2.5-2.8 3.7-5.2 9.1-4.4 18 0.7 9 5.8 15.3 7.4 19.1 2.3 5.7 9 37.6 18.9 53.7 4.5 7.3 11.4 6.1 17 1.6 8.7-7 34.2-29.9 34.2-29.9 9.8-14.5 19.6-29.6 11.9-37.2z"/>
				<path id="&lt;Path&gt;" class="s6" d="m654.6 578.4c0 0 4.2 7.3 4.2 17.9 0 0 3.1-10.6-2.1-20.1z"/>
				<path id="&lt;Path&gt;" class="s14" d="m708.7 541.5c-5.6-1.9-15-1.9-25.3 7.7-5.7 5.2-16.2 15.9-24.1 24.3 0 0 8.7 11.4 11.7 27l26-21.6c0 0 19-13.3 11.7-37.4z"/>
			</g>
			<g id="Character 2 ">
				<g id="&lt;Group&gt;">
					<g id="&lt;Group&gt;">
						<g id="&lt;Group&gt;">
							<path id="&lt;Path&gt;" class="s13" d="m593.4 750.6c0 0-5.1 19.8-8.5 26.1-3.8 7-7.6 13.1-13.5 19.7-1.2 1.4-4.1 4-5.2 5.2-0.9 1-1.1 2.2 0.2 3.5 2.5 2.5 13.4 3.3 19.5-1.2 6.2-4.4 11.4-11.8 15.1-15.4 1.8-1.9 3.6-3.6 4.8-4.9 1.3-1.2 1.8-2.9 1.3-4.6q-0.1-0.7-0.4-1.7c-1.3-5.9 5.8-20.8 5.8-20.8-5.1-7.3-12.5-7-19.1-5.9z"/>
							<g id="&lt;Group&gt;">
								<path id="&lt;Path&gt;" class="s8" d="m607.5 785c0 0 0.2 1.6-0.4 2.9-0.6 1.4-4.4 3.7-6.4 4.7-2 0.9-3.6 2.1-5.3 5.2-2.2 4.2-6.1 8.3-10.6 10.2-4.5 2-11.1 3.2-19 1.6-7.9-1.5-8.5-6.2-8.5-6.2 0 0-0.3-4.5 1.7-5.1 2-0.7 48.5-13.3 48.5-13.3z"/>
								<path id="&lt;Path&gt;" class="s7" d="m607.8 771.4c-0.1 0.4 0 1.6 0.1 2.1 0.2 2.2 0.3 3.6 0.4 6.1 0.1 1.8-0.2 4.1-0.8 5.4-2.4 3.2-8 4.1-11.3 8.5-3.2 4.4-7.2 11.1-17.6 13-10.4 1.8-18.3-1.6-20.1-4.6-1.9-3-0.1-5.8 6.6-9.2 7.2-3.7 15.8-13.8 15.8-13.8 0.9-1 1.6-2.1 2.4-3.2 0.9-1.2 1.9-2.4 2.3-3.9q0.8-2.3 0.9-4.7c0-0.1 0-0.3 0.1-0.4 0.1 0 0.2-0.1 0.3-0.1 3.9-0.3 7.9 0.6 11.2 2.6 0.3 0.2 0.6 0.4 0.9 0.8 0.1 0.2 0.2 0.6 0.3 0.9q0.4 1.2 0.7 2.5c0.2 0.7 0.4 1.4 1.1 1.7 0.7 0.3 1.6-0.2 2.2-0.7 0.7-0.6 1.1-1.7 1.8-2.3 0.8-0.6 1.7-0.8 2.7-0.7z"/>
								<path id="&lt;Path&gt;" class="s21" d="m585.4 804.1c0 0 0.3-7.2-7.5-11.4-7.8-4.2-12.6-1.7-15 0-2.9 2-7.1 6.2-4.7 9.4 2.7 3.4 6.9 5.1 14.9 5.3 8 0.3 12.3-3.3 12.3-3.3z"/>
							</g>
							<path id="&lt;Path&gt;" class="s2" d="m706.6 647.6c-3.7 10.7-5.1 22.9-19.1 32.8-12.8 9-41.4 15.8-45 17.6-3.8 1.8-6.1 2.4-7.6 8.2-2.1 8-2.4 14.1-9.8 28.1-5.3 9.9-9.3 16.9-13.5 24.2-3.8 0.4-16.8-3.1-18.7-6.2 1-6.1 11.8-64.3 18.4-77 5.5-10.7 74.6-45.8 74.6-45.8 0 0 24.4 7.3 20.7 18.1z"/>
							<path id="&lt;Path&gt;" class="s10" d="m706.6 647.6c-3.7 10.7-5.1 22.9-19.1 32.8-12.8 9-41.4 15.8-45 17.6-3.8 1.8-6.1 2.4-7.6 8.2-2.1 8-2.4 14.1-9.8 28.1-5.3 9.9-9.3 16.9-13.5 24.2-3.8 0.4-16.8-3.1-18.7-6.2 1-6.1 11.8-64.3 18.4-77 5.5-10.7 74.6-45.8 74.6-45.8 0 0 24.4 7.3 20.7 18.1z"/>
							<path id="&lt;Path&gt;" class="s5" d="m611.6 758.5c-1.6 0.2-4.8-0.3-8.1-1.2q0.5-1.1 1.3-2.4c4.5-6.8 7.7-13.6 11.8-21.9 8.8-17.7 9.2-32.6 14.1-40.2 4.1-6.6 31.6-12.9 41.7-15.3 8.2-2 11.8-4.7 14.4-8.5 2.6-3.7-4.8-12.1-3.4-19.9 5 12.1 14.6 18 14.6 18-1 2.4-19.8 18.4-19.8 18.4-11.3 5.2-25.6 9.2-32.4 11.3q0 0 0 0-0.9 0.3-1.6 0.5-0.1 0.1-0.2 0.1-0.3 0.1-0.5 0.2-0.1 0-0.2 0-0.2 0.1-0.3 0.2-0.1 0-0.2 0-0.2 0.1-0.3 0.2-1.1 0.5-2 0.9c-1.6 0.8-2.9 1.6-3.9 3.2-0.7 1-1.2 2.3-1.7 4.1q-0.2 0.8-0.4 1.5c-0.3 1.5-0.6 2.9-1 4.3q-0.1 0.7-0.3 1.5c-0.3 1.4-0.7 2.9-1.2 4.5q-0.2 0.8-0.5 1.7-0.5 1.6-1.3 3.5c-1.2 3.1-2.8 6.7-5.1 11.1q-0.5 0.9-1 1.8c-1.9 3.6-3.7 6.8-5.4 9.8q-0.4 0.7-0.8 1.5-1.6 2.9-3.2 5.6-1.2 2.1-2.3 4.1-0.4 0.7-0.8 1.4z"/>
						</g>
						<g id="&lt;Group&gt;">
							<path id="&lt;Path&gt;" class="s13" d="m648.8 776.5c0 0-5.1 19.9-8.5 26.1-3.8 7-7.6 13.2-13.4 19.7-1.3 1.4-4.2 4.1-5.3 5.2-0.9 1.1-1.1 2.3 0.2 3.5 2.5 2.5 13.4 3.3 19.5-1.1 6.2-4.5 11.4-11.9 15.1-15.5 1.8-1.8 3.6-3.5 4.8-4.8 1.3-1.2 1.8-3 1.4-4.7q-0.2-0.7-0.4-1.7c-1.3-5.9 5.7-20.7 5.7-20.7-5.1-7.4-12.5-7.1-19.1-6z"/>
							<g id="&lt;Group&gt;">
								<path id="&lt;Path&gt;" class="s8" d="m662.9 810.9c0 0 0.3 1.6-0.4 3-0.6 1.3-4.4 3.7-6.4 4.6-2 0.9-3.5 2.4-5.3 5.3-2.4 4-6.1 8.2-10.6 10.2-4.5 1.9-11.1 3.2-19 1.6-7.9-1.6-8.5-6.3-8.5-6.3 0 0-0.3-4.4 1.7-5.1 2-0.6 48.5-13.3 48.5-13.3z"/>
								<path id="&lt;Path&gt;" class="s7" d="m663.2 797.3c-0.1 0.5 0 1.6 0.1 2.1 0.2 2.2 0.4 3.6 0.4 6.1 0.1 1.9-0.1 4.1-0.8 5.4-2.4 3.2-8 4.2-11.2 8.5-3.3 4.4-7.2 11.2-17.7 13-10.4 1.9-18.3-1.6-20.1-4.6-1.9-3-0.1-5.7 6.7-9.2 7.1-3.7 15.7-13.7 15.7-13.7 0.9-1 1.6-2.2 2.4-3.2 0.9-1.3 1.9-2.5 2.3-4q0.8-2.2 0.9-4.6c0-0.2 0-0.3 0.1-0.4 0.1-0.1 0.2-0.1 0.4-0.1 3.8-0.4 7.8 0.5 11.1 2.6 0.3 0.2 0.7 0.4 0.9 0.7 0.2 0.3 0.2 0.6 0.3 0.9q0.4 1.3 0.7 2.5c0.2 0.7 0.4 1.4 1.1 1.7 0.7 0.4 1.6-0.2 2.2-0.7 0.7-0.6 1.1-1.7 1.9-2.3 0.7-0.5 1.7-0.8 2.6-0.7z"/>
								<path id="&lt;Path&gt;" class="s21" d="m640.8 830.1c0 0 0.3-7.3-7.5-11.5-7.7-4.1-12.6-1.6-15 0-2.9 2-7.1 6.3-4.6 9.4 2.6 3.4 6.8 5.1 14.8 5.4 8 0.2 12.3-3.3 12.3-3.3z"/>
							</g>
							<path id="&lt;Path&gt;" class="s2" d="m756.6 640.2c1.9 10.6 4.4 27.2-2 36.6-6 8.6-13.9 14.5-28.5 23.8-16 10.2-23.9 15.2-27.7 17.8-3.8 2.7-7.5 6.5-8.6 12.4-1.3 6.9-2.6 13.8-9.3 28.1-5.4 11.3-11.3 21.6-14.3 27.4-4.5 0.7-15.7-1.4-18.6-5.2 1.6-8.6 10.9-69.1 14.9-78.1 3.9-8.9 35.5-35.9 35.5-35.9 0 0 2.5-16.3 0-26.9z"/>
							<path id="&lt;Path&gt;" class="s10" d="m756.6 640.2c1.9 10.6 4.4 27.2-2 36.6-6 8.6-13.9 14.5-28.5 23.8-16 10.2-23.9 15.2-27.7 17.8-3.8 2.7-7.5 6.5-8.6 12.4-1.3 6.9-2.6 13.8-9.3 28.1-5.4 11.3-11.3 21.6-14.3 27.4-4.5 0.7-15.7-1.4-18.6-5.2 1.6-8.6 10.9-69.1 14.9-78.1 3.9-8.9 35.5-35.9 35.5-35.9 0 0 2.5-16.3 0-26.9z"/>
							<path id="&lt;Path&gt;" class="s5" d="m676.7 741.9c2.2-7.2 1.8-14.7 3.7-22 2-7.9 8.9-13.5 15.4-18.6q10.1-7.7 20.1-15.5c2.1-1.6 4.2-3.3 5.8-5.4 2.2-3.1 3.1-7 2.5-10.7-0.8-4.7-3.9-8.1-7.7-10.7-5.5-3.8-11.4-6.9-16.9-10.7-5.5-3.7-10.8-8.1-14.4-13.7-0.1-0.2-1.9-4-1.5-3.9 0 0 72.9 9.5 72.9 9.5 0.4 2.3 0.8 4.9 1.2 7.7q0.2 1.2 0.3 2.4 0.4 3 0.5 6.2 0.1 1.2 0.1 2.5 0 1.8-0.1 3.7-0.1 1.2-0.2 2.4-0.3 3-1.1 5.7c-0.6 2.2-1.5 4.2-2.7 6q-0.6 0.8-1.2 1.6-1.7 2.3-3.8 4.4-2 2.2-4.4 4.3-1.6 1.3-3.4 2.7-1.8 1.4-3.8 2.9c-3.4 2.4-7.3 5-11.9 7.9q-3 1.9-5.6 3.6c-5.3 3.3-9.5 6-12.8 8.1q-0.9 0.6-1.6 1.1c-3.6 2.3-6.1 3.9-7.7 5-1.7 1.2-3.3 2.6-4.7 4.3-1.8 2.1-3.3 4.8-3.9 8.1-1.3 6.9-2.6 13.8-9.3 28.1-2.7 5.7-5.5 11.1-8 15.8q-1.4 2.6-2.7 5c-1.4 2.5-2.6 4.8-3.6 6.6-1.9 0.3-5 0.1-8.2-0.6 0.3-1.1 0.9-2.3 1.7-3.8 5.5-10.3 13.3-27.3 17-40z"/>
						</g>
					</g>
				</g>
				<g id="&lt;Group&gt;">
					<path id="&lt;Path&gt;" class="s21" d="m729.7 542.6c13.8 2.6 22.9 5.5 25.5 8 5.9 12-1.7 52.1-1.7 52.1l0.7 18.7 3.3 18.8c-14.8 12.5-65.7 8-73.8-9.5 0 0 2.6-54.5 3.6-64.6 1.2-11.6 7.5-23.8 23.1-24.7z"/>
					<path id="&lt;Path&gt;" class="s23" d="m739.7 635.2c4-6.1 7.5-21.8 7.5-21.8 0 0-6.6-40.9-5-50.5l14.3 18.1c-1.1 11.6-3 21.7-3 21.7l0.7 18.7 3.3 18.8c-11.8 10-45.1 11.4-65.6-1.3 21.8 7.2 43.9 2.4 47.8-3.7z"/>
				</g>
				<g id="&lt;Group&gt;">
					<g id="&lt;Group&gt;">
						<path id="&lt;Path&gt;" class="s8" d="m737.8 488.8c0 15.2-12.6 34.9-27.8 34.9-15.2 0-27.7-13.9-27.2-34.9 0.4-15.2 10-14.6 25.2-14.6 15.1 0 29.8-0.6 29.8 14.6z"/>
						<path id="&lt;Path&gt;" class="s8" d="m741.5 505.5c0 0-2.2 16.3-3.3 19-1.2 2.7-4 3.7-4 3.7l-0.6-11.3z"/>
						<path id="&lt;Path&gt;" class="s8" d="m735.5 482.8c0 0 3.7-0.9 6.7 1.9 3.1 2.6 2.2 11.7-0.7 20.8l-6.3 1.2z"/>
						<path id="&lt;Path&gt;" class="s13" d="m733.2 506.8c1.4 0.7 3-1.9 4.5-3.7 1.5-1.8 6.5-4.4 9.5 0.8 3 5.4-1.3 13.1-5.3 14.7-6.9 2.7-8.3-1.7-8.3-1.7l1.5 27.9c-6.4 13.9-37 13.1-23.1-0.4l-0.5-8.8c0 0-7.5 1.1-10.6 0.8-5.3-0.4-8.4-3.1-10.4-8.6-3.2-8.8-4-16.7-3.1-34.6 0.9-19.5 23.4-21.4 36.1-14.7 12.8 6.8 9.7 28.3 9.7 28.3z"/>
						<path id="&lt;Path&gt;" class="s8" d="m733.7 472.3c-4.3-1.6-9-2.3-13.6-3-10-1.4-20.2-2.6-29.5-6.5-1.2-0.5-2.4-1-3.6-0.7-2.3 0.5-3.2 3.4-3.1 5.8 0.1 2.2 0.6 4.4 1.4 6.5-1.4-1.4-4-1-5.3 0.5-1.3 1.5-1.5 3.7-1.1 5.6 0.9 4.4 4.5 7.8 8.6 9.4 4.2 1.7 8.8 1.8 13.2 1.6 6.2-0.2 12.4-1.2 18.4-2.7 1.5-0.4 3-0.8 4.5-0.7 1.5 0.1 3 1 3.5 2.4 0.9 2.4 2.8 19 6.2 18.8 0.7 0 2.8-4.4 4.2-6 1.9-2 2.8-16.4 3-19.1 0-0.2 0.1-0.4 0.2-0.6 2-3.3-1-8.4-3.9-9.9q-1.5-0.8-3.1-1.4z"/>
						<path id="&lt;Path&gt;" class="s8" d="m739.5 483.9c1.8 1.9 4.8 1.9 6.6 0.1 1.9-1.9 1.9-4.8 0.1-6.7z"/>
						<path id="&lt;Path&gt;" class="s6" d="m711.5 535.6c0 0 11.4-2 15.3-4.4 2.6-1.6 4.6-4.3 5.2-6 0 0-0.5 3.5-2.7 6.8-2.7 4-17.6 8-17.6 8z"/>
					</g>
					<g id="&lt;Group&gt;">
						<path id="&lt;Path&gt;" class="s8" d="m710.3 505.5c0.1 1.4 1.2 2.3 2.5 2.3 1.3-0.1 2.2-1.3 2.1-2.6-0.1-1.4-1.2-2.4-2.4-2.3-1.3 0.1-2.3 1.3-2.2 2.6z"/>
						<path id="&lt;Path&gt;" class="s8" d="m712.1 496.6l5.2 2.4c0.6-1.5-0.1-3.2-1.5-3.9-1.4-0.6-3.1 0-3.7 1.5z"/>
						<path id="&lt;Path&gt;" class="s6" d="m711.5 521.6l-5.2 2.4c0.7 1.5 2.3 2.2 3.8 1.5 1.4-0.7 2-2.4 1.4-3.9z"/>
						<path id="&lt;Path&gt;" class="s8" d="m689.8 500.3l4.3-3.9c-1.1-1.2-2.8-1.3-4-0.3-1.2 1.1-1.3 2.9-0.3 4.2z"/>
						<path id="&lt;Path&gt;" class="s8" d="m691.7 506.3c0.1 1.3 1.2 2.3 2.4 2.2 1.3-0.1 2.3-1.2 2.2-2.6-0.1-1.3-1.2-2.3-2.5-2.2-1.3 0.1-2.2 1.3-2.1 2.6z"/>
						<path id="&lt;Path&gt;" class="s6" d="m703.5 503.9l0.2 14-7.4-1.9z"/>
					</g>
				</g>
			</g>
			<g id="&lt;Group&gt;">
				<path id="&lt;Path&gt;" class="s14" d="m799.5 613.1l-1.5 8.4-76.5 60.8c-5.5 4.3-8.9 10.7-9.5 17.7l-9.1 94c0 0.6 0.3 1.2 0.8 1.5 0.5 0.3 1.2 0.2 1.6-0.1l29.3-17.1v-6.1l-24.3 14.2 10.7-80.4c1.2-7.1 5.3-13.4 11.4-17.2l65.3-41.3c12.5-7.9 13-25.6 1.8-34.4z"/>
				<path id="&lt;Path&gt;" class="s8" d="m784.5 632.3c1.8 3.2 3.7 13.2 2 15-1.8 1.8-3.9 3.2-6.7 4.6-2.8 1.5-6.9 3.2-11.8 5.1-7.9 3-16.8 5.5-24.3 7.6z"/>
			</g>
			<g id="&lt;Group&gt;">
				<path id="&lt;Path&gt;" class="s13" d="m785.4 625.8c-3-11.7-12.2-44.9-15.2-55.5-4.9-17.4-10.1-19.4-17.8-21.1-6.3 4.9-12.3 23.3-4 39.9l12.2 43.3c0 0-2.4 1.8-12.6 10.8-9.2 8.1-12.8 10.9-16.9 14-4.4 3.3-8.3 6.1-11.5 9.2-1.5 1.4-14 17.3-13.8 20.4 0.2 2.7 2.8 4.7 7.8 5.4 4.5 0.7 7.7-1.7 10.9-4.7 0.5-0.5 1-1 1.5-1.5 1.8-2.1 3.9-3.8 6.3-5.1 2.2-1.2 3.5-2 5.8-3.8 2.4-2 3.2-4.3 6.7-6.6 3.5-2.2 24.4-15.4 35.7-22.6 9.1-5.8 8.3-8.7 4.9-22.1z"/>
				<path id="&lt;Path&gt;" class="s6" d="m760.6 632.4c0 0 6.1-3.5 16.6 0 0 0-7.4-5.3-17.3-2.5z"/>
				<g id="&lt;Group&gt;">
					<path id="&lt;Path&gt;" class="s14" d="m748.8 547.6c11.9 1.4 16.3 4.9 20.6 17.8 4.3 12.9 12.6 45.3 12.6 45.3 0 0-13.2 7.6-27.2 6.4l-9.3-32.3c0 0-12.5-26.5 3.3-37.2z"/>
				</g>
			</g>
			<g id="&lt;Group&gt;">
				<path id="&lt;Compound Path&gt;" fill-rule="evenodd" class="s7" d="m780.1 675.5l3.3-1.9c7.9-4.6 15.3-6.8 22-6.8v-0.1q0.3 0 0.6 0.1 1.7 0 3.4 0.2c10.5 1.1 19.7 6.5 25.8 14.4q0.2 0.2 0.4 0.4 0.3 0.4 0.6 0.8 0.2 0.3 0.4 0.6 0.2 0.3 0.5 0.7 0.4 0.6 0.8 1.3 0.2 0.3 0.3 0.6 0.2 0.3 0.4 0.7 0 0 0 0c2.9 5.4 4.6 11.5 4.6 18.1v1.5q0 1 0 2.1v3.7c0 32.1-22.6 71.2-50.4 87.3l-3.2 1.8c-7.9 4.6-15.4 6.8-22 6.9q-0.1 0-0.2 0-0.2 0-0.3 0-0.7 0-1.3 0-0.2 0-0.4 0-0.6-0.1-1.1-0.1-0.3 0-0.6-0.1-0.2 0-0.3 0c-10.8-1.2-20.3-7-26.4-15.3q-0.4-0.5-0.8-1.1 0-0.1 0-0.1-0.5-0.7-0.9-1.3c-3.5-5.8-5.6-12.6-5.6-19.8v-7.3c0-32.2 22.6-71.3 50.4-87.3zm11.1 113.7c23.5-13.6 42.6-46.6 42.6-73.7 0-27.2-19.1-38.2-42.6-24.6-23.5 13.6-42.6 46.6-42.6 73.7 0 27.2 19.1 38.2 42.6 24.6z"/>
				<path id="&lt;Compound Path&gt;" fill-rule="evenodd" class="s14" d="m789.6 680.9l3.2-1.8c13.8-8 26.3-8.8 35.4-3.7q0.3 0.2 0.7 0.4 0 0.1 0.1 0.1 0.4 0.3 0.8 0.5 0.4 0.3 0.8 0.6 0.8 0.5 1.6 1.2 0.3 0.3 0.7 0.6 0.7 0.7 1.4 1.5 0.3 0.3 0.6 0.7 0.4 0.4 0.7 0.8 0.3 0.4 0.6 0.8 0.2 0.3 0.4 0.6 0.2 0.3 0.5 0.7 0.4 0.6 0.8 1.3 0.2 0.3 0.3 0.6 0.2 0.3 0.4 0.7 0.2 0.3 0.3 0.7 0.7 1.2 1.2 2.6 0.3 0.7 0.5 1.5 0.1 0 0.1 0 0.4 1.4 0.8 2.9 0.2 0.7 0.4 1.6 0.2 0.9 0.4 1.8 0.1 0.5 0.1 0.9 0.2 0.8 0.3 1.6 0.1 0.8 0.2 1.7 0 0.2 0 0.3 0.1 0.8 0.2 1.6 0 0.3 0 0.6 0 0.9 0.1 1.8 0 1 0 2.1v3.7c0 32.1-22.6 71.2-50.4 87.3l-3.2 1.8c-8.1 4.7-15.7 6.9-22.5 6.9q-0.7 0-1.3 0-0.2 0-0.4 0-0.6-0.1-1.1-0.1-0.3 0-0.6-0.1-0.6 0-1.1-0.1-0.5-0.1-1-0.2-0.5-0.1-0.9-0.2-0.9-0.2-1.8-0.5-0.4-0.1-0.7-0.2-0.5-0.2-0.8-0.3-0.4-0.2-0.7-0.3-0.7-0.3-1.4-0.7-0.4-0.1-0.7-0.3-0.1-0.1-0.2-0.1-0.2-0.1-0.3-0.2-0.2-0.1-0.4-0.2c-9-5.4-14.5-16.6-14.5-32.5v-3.7c0-32.1 22.6-71.2 50.4-87.3zm1.6 108.3c23.5-13.6 42.6-46.6 42.6-73.7 0-27.2-19.1-38.2-42.6-24.6-23.5 13.6-42.6 46.6-42.6 73.7 0 27.2 19.1 38.2 42.6 24.6z"/>
				<g id="&lt;Group&gt;">
					<path id="&lt;Path&gt;" class="s2" d="m759.6 782.2c6.7 8 18.3 9.2 31.6 1.5 20.9-12 37.8-41.4 37.8-65.5 0-10.8-3.4-18.7-9-23.1 3.9 4.7 6.2 11.6 6.2 20.4 0 24.1-16.9 53.4-37.8 65.5-11.6 6.7-21.9 6.7-28.8 1.2z"/>
					<path id="&lt;Path&gt;" class="s22" d="m759.6 782.2c6.7 8 18.3 9.2 31.6 1.5 20.9-12 37.8-41.4 37.8-65.5 0-10.8-3.4-18.7-9-23.1 3.9 4.7 6.2 11.6 6.2 20.4 0 24.1-16.9 53.4-37.8 65.5-11.6 6.7-21.9 6.7-28.8 1.2z"/>
				</g>
				<path id="&lt;Compound Path&gt;" fill-rule="evenodd" class="s2" d="m791.2 690.9c23.5-13.6 42.6-2.6 42.6 24.6 0 27.1-19.1 60.1-42.6 73.7-23.5 13.6-42.5 2.6-42.5-24.6 0-27.1 19-60.1 42.5-73.7zm0 92.8c20.9-12 37.8-41.4 37.8-65.5 0-24.1-16.9-33.9-37.8-21.8-20.9 12-37.8 41.4-37.8 65.5 0 24.1 16.9 33.9 37.8 21.8z"/>
				<path id="&lt;Path&gt;" class="s23" d="m754.7 749.9q0.1-0.7 0.2-1.3l33-8.8 0.7-1.1-24.2-14q0.3-0.5 0.6-1l24.2 14 0.6-1.2-8.8-32.7q0.5-0.4 1-0.8l8.6 32.1 1.2-1.4 8.4-41.3q0.7-0.2 1.3-0.3l-8.3 40.7 1.3-0.1 22.7-39.4q0.5 0.3 1 0.6l-22.7 39.3 0.5 1.3 31.4-27.9q0.2 0.6 0.4 1.2l-31.9 28.3-0.6 1.7 32.7-8.8q-0.1 0.7-0.3 1.3l-33.2 8.9-0.7 1.1 24.7 14.3q-0.3 0.5-0.6 1l-24.7-14.3-0.6 1.2 9 33.5q-0.5 0.5-1 0.9l-8.8-33-1.2 1.3-8.7 42.6q-0.6 0.1-1.2 0.3l8.5-42-1.3 0.2-23.2 40.2q-0.5-0.3-1-0.6l23.2-40.1-0.5-1.3-31.7 28.1q-0.2-0.6-0.3-1.2l32.1-28.5 0.6-1.7z"/>
				<g id="&lt;Group&gt;">
					<path id="&lt;Compound Path&gt;" fill-rule="evenodd" class="s1" d="m789 722.4c4-2.3 7.7-2.4 10.2-0.8 0.6 0.3 1.2 0.6 1.9 1q0.3 0.2 0.6 0.4 0 0 0.1 0 0 0.1 0 0.1 0.4 0.2 0.7 0.5 0.1 0.1 0.1 0.2 0.3 0.3 0.6 0.6 0.1 0.1 0.2 0.3 0.2 0.3 0.4 0.6 0.1 0.2 0.2 0.4 0.2 0.3 0.4 0.6 0.1 0.3 0.2 0.6 0.1 0.3 0.2 0.6 0.1 0.4 0.2 0.7 0 0.3 0.1 0.6 0.1 0.5 0.1 1 0.1 0.2 0.1 0.5 0.1 0.7 0.1 1.6c0 9-6.4 20-14.2 24.5q-0.7 0.5-1.5 0.8-0.4 0.2-0.8 0.3-0.3 0.1-0.6 0.3-0.3 0-0.5 0.1-0.5 0.1-0.9 0.2-0.1 0.1-0.3 0.1-0.5 0.1-1 0.1 0 0 0 0c-1.8 0.2-3.4-0.2-4.7-1-0.7-0.5-1.3-0.8-2-1.2-2.5-1.5-4.1-4.7-4.1-9.1 0-9 6.4-20 14.2-24.6zm4.1 27.3c2.4-1.9 5.8-7.6 7.1-10.8-0.7 0.5-1.5 1-2.4 1.5-3.7 1.9-3.6-0.7-5.1 1.1-1.5 1.7-1.3 6.2-0.1 8.5q0.2-0.1 0.5-0.3zm-7.2-16.8q0.3 0.1 0.6 0.3c0.4 0.2 2 1.1 2.2 1.2 0.5 0.3 0.8 0.7 1 1.1 1.9-1.9 4-7.8 3.8-10.6-3.2 1.1-8.4 5.5-9.3 7.2q-0.1 0.2-0.1 0.4c0.6 0.1 1.2 0.2 1.8 0.4zm10.7-1.9c-1.2 4.3-3 5-3.1 6.4 2.8-0.5 7.4-3.2 7.7-5.9 0.3-2.5-1.1-5.5-2.5-7.2-1.2 0.5-1.1 3.2-2.1 6.7zm-8 22.5c1.5-1.3-0.1-2.7-0.9-5.5-0.5-1.7-0.2-3 0-4-2.9 2.3-7.2 8.3-6.1 10.1q0.1 0.1 0.1 0.1c2.5 0.7 5.9 0.3 6.9-0.7zm-6.9-9.3c3.1-4.1 4.3-2.7 5-4.9 0.4-1.1-0.1-2.2-1-3-1.6-0.5-3.5-0.2-4.4 1.5-1.5 2.7-2.4 7.6-2.4 10.6 0.7-1.1 1.6-2.7 2.8-4.2z"/>
					<path id="&lt;Compound Path&gt;" fill-rule="evenodd" class="s22" d="m789 722.4c4-2.3 7.7-2.4 10.2-0.8 0.6 0.3 1.2 0.6 1.9 1q0.3 0.2 0.6 0.4 0 0 0.1 0 0 0.1 0 0.1 0.4 0.2 0.7 0.5 0.1 0.1 0.1 0.2 0.3 0.3 0.6 0.6 0.1 0.1 0.2 0.3 0.2 0.3 0.4 0.6 0.1 0.2 0.2 0.4 0.2 0.3 0.4 0.6 0.1 0.3 0.2 0.6 0.1 0.3 0.2 0.6 0.1 0.4 0.2 0.7 0 0.3 0.1 0.6 0.1 0.5 0.1 1 0.1 0.2 0.1 0.5 0.1 0.7 0.1 1.6c0 9-6.4 20-14.2 24.5q-0.7 0.5-1.5 0.8-0.4 0.2-0.8 0.3-0.3 0.1-0.6 0.3-0.3 0-0.5 0.1-0.5 0.1-0.9 0.2-0.1 0.1-0.3 0.1-0.5 0.1-1 0.1 0 0 0 0c-1.8 0.2-3.4-0.2-4.7-1-0.7-0.5-1.3-0.8-2-1.2-2.5-1.5-4.1-4.7-4.1-9.1 0-9 6.4-20 14.2-24.6zm4.1 27.3c2.4-1.9 5.8-7.6 7.1-10.8-0.7 0.5-1.5 1-2.4 1.5-3.7 1.9-3.6-0.7-5.1 1.1-1.5 1.7-1.3 6.2-0.1 8.5q0.2-0.1 0.5-0.3zm-7.2-16.8q0.3 0.1 0.6 0.3c0.4 0.2 2 1.1 2.2 1.2 0.5 0.3 0.8 0.7 1 1.1 1.9-1.9 4-7.8 3.8-10.6-3.2 1.1-8.4 5.5-9.3 7.2q-0.1 0.2-0.1 0.4c0.6 0.1 1.2 0.2 1.8 0.4zm10.7-1.9c-1.2 4.3-3 5-3.1 6.4 2.8-0.5 7.4-3.2 7.7-5.9 0.3-2.5-1.1-5.5-2.5-7.2-1.2 0.5-1.1 3.2-2.1 6.7zm-8 22.5c1.5-1.3-0.1-2.7-0.9-5.5-0.5-1.7-0.2-3 0-4-2.9 2.3-7.2 8.3-6.1 10.1q0.1 0.1 0.1 0.1c2.5 0.7 5.9 0.3 6.9-0.7zm-6.9-9.3c3.1-4.1 4.3-2.7 5-4.9 0.4-1.1-0.1-2.2-1-3-1.6-0.5-3.5-0.2-4.4 1.5-1.5 2.7-2.4 7.6-2.4 10.6 0.7-1.1 1.6-2.7 2.8-4.2z"/>
					<path id="&lt;Compound Path&gt;" fill-rule="evenodd" class="s1" d="m791.2 723.7c7.8-4.5 14.2-0.9 14.2 8.2 0 9-6.4 20-14.2 24.5-7.8 4.5-14.2 0.9-14.2-8.2 0-9 6.4-20 14.2-24.5zm3.5 0.9c-2.8 0.1-9.5 5.5-10.5 7.5-0.9 1.9 1.6 1.2 3.8 2 2.9 1 1.5 3.8 3.2 3.1 2.5-1 6.3-12.6 3.5-12.6zm4.2-0.4c-1.4 0.2-1.2 3.1-2.3 6.8-1.3 4.8-3.3 5.1-3 6.8 0.4 2.6 9.3-1.3 9.7-5.1 0.5-3.8-2.9-8.8-4.4-8.5zm-3.7 26.7c3.1-2.4 7.8-10.9 7.8-12.7 0-1.8-2.3 0.7-5.2 2.2-3.7 1.9-3.6-0.7-5.1 1.1-2.2 2.6-0.5 11.8 2.5 9.4zm-13.6 3.2c1.5 2.3 7.7 2 9.2 0.6 1.5-1.3-0.2-2.6-0.9-5.4-1-3.6 1.1-5.5-0.1-6.2-1.8-0.9-9.7 8.6-8.2 11zm2.3-8.7c3-4.1 4.3-2.7 5-4.9 1.1-3.2-5.5-6.5-7.6-2.7-2.2 3.9-3 12.2-2.1 13.2 0.9 0.9 2.2-2.4 4.7-5.6z"/>
				</g>
				<path id="&lt;Path&gt;" class="s7" d="m791.2 745.1c-2.4 1.3-4.3 0.2-4.3-2.5 0-2.8 1.9-6.2 4.3-7.6 2.4-1.3 4.3-0.2 4.3 2.5 0 2.8-1.9 6.2-4.3 7.6z"/>
			</g>
		</g>
	</g>
</svg>